<svg width="82" height="44" viewBox="0 0 82 44" fill="none" xmlns="http://www.w3.org/2000/svg">
<path d="M47.4459 36.8935V6.76413H58.1708C61.5529 6.76413 64.4504 7.43297 66.9019 8.7277L66.9058 8.72969L66.9145 8.73418L66.9146 8.73424C69.3761 9.99907 71.2626 11.7579 72.605 14.0194L72.6065 14.0219L72.6094 14.0267L47.4459 36.8935ZM47.4459 36.8935H58.1708C61.5552 36.8935 64.4553 36.2427 66.9082 34.9837C69.377 33.6786 71.2655 31.9156 72.6072 29.6916C73.9464 27.4339 74.632 24.8253 74.632 21.8288C74.632 18.8304 73.9456 16.2433 72.6096 14.0269L47.4459 36.8935ZM10.3706 37.4949L10.3706 37.4949L10.3761 37.497C12.6642 38.3517 15.1069 38.7777 17.7009 38.7777C21.0734 38.7777 23.7414 38.064 25.6523 36.5824L25.6523 36.5824L25.6564 36.5792C27.5758 35.0508 28.5305 32.9528 28.5305 30.3315C28.5305 27.7459 27.5739 25.6846 25.6523 24.1948C23.7357 22.7088 20.8885 21.9995 17.1794 21.9995H14.6823V19.5168L25.8338 5.76004L26.3623 5.10815H25.5231H5.17983V2.25598H30.4538V4.62498L19.07 18.7243L18.5785 19.333L19.3598 19.375C19.7114 19.3939 20.0556 19.4191 20.3924 19.4506C24.0707 19.7948 26.8522 20.8888 28.7847 22.6919L28.7847 22.692L28.79 22.6968C30.9384 24.6302 32.0182 27.1623 32.0182 30.3315C32.0182 32.5447 31.4763 34.5047 30.3999 36.2235C29.3271 37.8987 27.73 39.2405 25.5858 40.2408C23.4504 41.2369 20.827 41.744 17.7009 41.744C14.8086 41.744 12.073 41.2946 9.4918 40.3977C7.07173 39.508 5.11567 38.3542 3.6106 36.9445L5.20464 34.3877C5.30376 34.48 5.40491 34.5711 5.50808 34.661C6.81112 35.7962 8.43497 36.7389 10.3706 37.4949ZM22.8779 6.76413L13.1025 18.8233L13.0132 18.9335V19.0752V23.2554V23.6554H13.4132H17.1794C20.7218 23.6554 23.1303 24.3411 24.6245 25.4996C26.1048 26.6473 26.8614 28.2079 26.8614 30.3315C26.8614 32.4974 26.1009 34.0989 24.6182 35.2825C23.1058 36.4521 20.856 37.1217 17.7009 37.1217C15.298 37.1217 13.0587 36.7284 10.973 35.9505C8.86373 35.1256 7.23397 34.092 6.03531 32.8777L5.25628 32.0886L4.90028 31.728L4.63218 32.158L1.66057 36.9242L1.49109 37.196L1.71932 37.4208L2.20426 37.8984C3.9432 39.611 6.19616 40.9525 8.91523 41.9518C8.9153 41.9518 8.91537 41.9518 8.91544 41.9519L8.92249 41.9545L8.92247 41.9545L8.92939 41.9569L8.93666 41.9595C11.7057 42.922 14.6298 43.4 17.7009 43.4C21.0014 43.4 23.8821 42.8655 26.2961 41.7393C28.6795 40.6274 30.541 39.092 31.8101 37.1097L31.8121 37.1065L31.8165 37.0995L31.8165 37.0993C33.0718 35.0957 33.6874 32.8274 33.6874 30.3315C33.6874 26.7463 32.4451 23.7546 29.9198 21.4778C27.8905 19.5882 25.1592 18.4437 21.8297 17.955L32.0341 5.31643L32.1229 5.20647V5.06515V1V0.6H31.7229H3.91069H3.51069V1V6.36413V6.76413H3.91069H22.8779ZM41.0199 0.6H40.6199V1V42.6576V43.0576H41.0199H58.4026C62.8599 43.0576 66.8504 42.1866 70.3405 40.4073L70.3438 40.4056L70.3508 40.4019C73.8297 38.5881 76.5559 36.0723 78.4969 32.8592L78.4981 32.8571L78.5005 32.8532C80.4425 29.5977 81.4 25.9112 81.4 21.8288C81.4 17.7478 80.4431 14.0783 78.4985 10.8581C76.5582 7.60686 73.8305 5.08783 70.3459 3.31016C66.8548 1.49102 62.8622 0.6 58.4026 0.6H41.0199ZM77.0641 11.7049L77.0652 11.7068C78.8392 14.6434 79.7309 18.0134 79.7309 21.8288C79.7309 25.6438 78.8393 29.0335 77.0645 32.009C75.2894 34.9471 72.7969 37.2554 69.5762 38.9351C66.3579 40.5755 62.6368 41.4016 58.4026 41.4016H42.2891V2.25598H58.4026C62.6361 2.25598 66.3564 3.1008 69.5743 4.77861L69.5776 4.78028C72.7966 6.4214 75.2887 8.72883 77.0641 11.7049ZM74.0419 30.538L74.0433 30.5357C75.5518 27.9944 76.3011 25.0881 76.3011 21.8288C76.3011 18.5702 75.5521 15.6822 74.0426 13.1779C72.5351 10.6387 70.4122 8.66697 67.6843 7.26481C64.9524 5.82249 61.7772 5.10815 58.1708 5.10815H46.1768H45.7768V5.50815V38.1495V38.5495H46.1768H58.1708C61.7764 38.5495 64.9508 37.8545 67.6823 36.4509L67.6863 36.4488C70.4119 35.0094 72.5341 33.0389 74.0419 30.538Z" fill="#161616" stroke="black" stroke-width="0.8"/>
</svg>
