<svg width="60" height="60" viewBox="0 0 60 60" fill="none" xmlns="http://www.w3.org/2000/svg">
<path d="M59.0112 31.8952C59.0112 28.8525 56.5357 26.3771 53.493 26.3771H51.6145H43.4882C45.0376 23.5722 45.8616 20.925 45.8616 17.2688V16.678C45.8616 16.6776 45.8616 16.6774 45.8616 16.677C45.861 14.7104 45.1009 12.8559 43.7209 11.4553C42.3417 10.0555 40.5004 9.2675 38.5359 9.2368C38.5172 9.23656 38.4983 9.23633 38.4796 9.23633C36.5756 9.23633 34.9106 10.7506 34.7543 12.6375C34.0089 21.6352 25.3388 26.2721 19.5393 29.0923V28.1613C19.5393 27.1886 18.7507 26.4002 17.7782 26.4002H2.74992C1.77727 26.4002 0.988831 27.1887 0.988831 28.1613V58.2175C0.988831 59.1901 1.77739 59.9786 2.74992 59.9786H14.021C16.1798 59.9786 18.0518 58.7319 18.958 56.9211C25.2304 59.6457 30.6796 60.0005 36.9374 60.0005C38.0063 60.0005 39.0997 59.9902 40.224 59.9796C41.4673 59.9679 42.7528 59.9557 44.1005 59.9557H49.6686C52.7114 59.9557 55.1868 57.4802 55.1868 54.4375C55.1868 53.4145 54.9069 52.4557 54.4198 51.6334C56.0052 50.6627 57.0653 48.9147 57.0653 46.9235C57.0653 45.9004 56.7855 44.9416 56.2983 44.1193C57.8837 43.1486 58.9438 41.4007 58.9438 39.4094C58.9438 37.9764 58.3945 36.6697 57.4958 35.6878C58.4338 34.698 59.0112 33.3631 59.0112 31.8952ZM16.017 54.4604C16.017 55.561 15.1216 56.4563 14.021 56.4563H12.0251V50.7034C12.0251 49.7307 11.2365 48.9423 10.264 48.9423C9.29145 48.9423 8.50289 49.7308 8.50289 50.7034V56.4563H4.51114V29.9223H16.0171V54.4604H16.017ZM49.736 37.4134H51.6145H53.4257C54.5263 37.4134 55.4216 38.3087 55.4216 39.4093C55.4216 40.5099 54.5263 41.4052 53.4257 41.4052H51.6145H51.5471H49.736C48.7634 41.4052 47.9749 42.1938 47.9749 43.1663C47.9749 44.1389 48.7635 44.9274 49.736 44.9274H51.5471C52.6478 44.9274 53.5431 45.8227 53.5431 46.9234C53.5431 48.024 52.6478 48.9193 51.5471 48.9193H49.6686C48.696 48.9193 47.9075 49.7079 47.9075 50.6804C47.9075 51.6529 48.6961 52.4415 49.6686 52.4415C50.7693 52.4415 51.6646 53.3368 51.6646 54.4374C51.6646 55.538 50.7693 56.4334 49.6686 56.4334H44.1005C42.7362 56.4334 41.4422 56.4455 40.1907 56.4575C32.3401 56.5317 26.5724 56.5865 19.5623 53.3316V32.9932H19.5622C19.7455 32.9046 19.9336 32.8138 20.1254 32.7213C23.187 31.2452 27.3798 29.2237 30.985 26.162C35.3984 22.4136 37.8477 17.9611 38.2645 12.9281C38.2695 12.8683 38.3843 12.7583 38.4789 12.7583C38.4795 12.7583 38.4802 12.7583 38.4807 12.7583C40.6084 12.7916 42.3394 14.5504 42.3394 16.679V17.2687C42.3394 20.9296 41.3847 23.246 39.3877 26.377H36.5864C35.6138 26.377 34.8253 27.1655 34.8253 28.1381C34.8253 29.1107 35.6139 29.8992 36.5864 29.8992H40.356C40.3577 29.8992 40.3595 29.8992 40.3613 29.8992H51.6145H53.493C54.5937 29.8992 55.489 30.7945 55.489 31.8951C55.489 32.9957 54.5937 33.8911 53.493 33.8911H51.6145H49.736C48.7634 33.8911 47.9749 34.6796 47.9749 35.6521C47.9749 36.6248 48.7635 37.4134 49.736 37.4134Z" fill="#161616"/>
<path d="M55.3487 13.0156H51.5917C50.619 13.0156 49.8306 13.8042 49.8306 14.7767C49.8306 15.7493 50.6191 16.5378 51.5917 16.5378H55.3487C56.3213 16.5378 57.1098 15.7493 57.1098 14.7767C57.1098 13.8042 56.3213 13.0156 55.3487 13.0156Z" fill="#161616"/>
<path d="M29.0495 13.0156H25.2925C24.3198 13.0156 23.5314 13.8042 23.5314 14.7767C23.5314 15.7493 24.3199 16.5378 25.2925 16.5378H29.0495C30.022 16.5378 30.8106 15.7493 30.8106 14.7767C30.8106 13.8042 30.022 13.0156 29.0495 13.0156Z" fill="#161616"/>
<path d="M36.2097 4.13456L34.3312 0.88085C33.8449 0.0385067 32.7678 -0.250126 31.9256 0.236319C31.0833 0.722647 30.7947 1.79972 31.2811 2.64194L33.1596 5.89566C33.4857 6.46073 34.0777 6.77644 34.6863 6.77644C34.985 6.77644 35.2879 6.70038 35.5652 6.54019C36.4074 6.05398 36.6961 4.97691 36.2097 4.13456Z" fill="#161616"/>
<path d="M48.7155 0.236346C47.8732 -0.250217 46.796 0.0386504 46.3099 0.880877L44.4314 4.13459C43.9449 4.97681 44.2336 6.054 45.0759 6.54021C45.3532 6.70041 45.656 6.77646 45.9548 6.77646C46.5635 6.77646 47.1555 6.46064 47.4815 5.89568L49.3601 2.64197C49.8464 1.79974 49.5579 0.722674 48.7155 0.236346Z" fill="#161616"/>
</svg>
