<svg width="70" height="80" viewBox="0 0 70 80" fill="none" xmlns="http://www.w3.org/2000/svg">
<path d="M22.6063 16.8516L23.5255 16.5044L23.1945 15.5793C23.0309 15.1223 22.9354 14.6634 22.9354 14.1949C22.9354 11.9013 24.8025 10.0337 27.0966 10.0337C27.5994 10.0337 28.0888 10.1375 28.563 10.3165L29.4176 10.6389L29.816 9.817C30.4949 8.41619 31.9112 7.45312 33.5481 7.45312C35.8422 7.45312 37.7093 9.32069 37.7093 11.6143V47.7427C37.7093 50.0369 35.8422 51.9039 33.5481 51.9039C31.911 51.9039 30.4949 50.9413 29.816 49.5401L29.4177 48.718L28.563 49.0405C28.0888 49.2195 27.5994 49.3233 27.0966 49.3233C24.8024 49.3233 22.9354 47.4563 22.9354 45.1621C22.9354 44.6942 23.031 44.2346 23.1945 43.7777L23.5256 42.8524L22.6061 42.5053C20.5361 41.7239 19.0645 39.743 19.0645 37.4203C19.0645 36.5404 19.2983 35.7081 19.6928 34.9435L20.2043 33.9523L20.143 33.9287L21.2492 33.09C22.1722 32.3902 23.2951 31.9688 24.516 31.9688C27.1799 31.9688 29.4043 33.8909 29.8755 36.4203H29.2837C28.8215 34.2123 26.8601 32.5494 24.516 32.5494C21.8298 32.5494 19.6451 34.7341 19.6451 37.4203C19.6451 39.8059 21.3656 41.7819 23.6235 42.2024L24.0866 42.2887L24.448 41.9866C24.9285 41.5848 25.4871 41.2863 26.0966 41.1283V41.7233C24.6067 42.1568 23.516 43.5335 23.516 45.1621C23.516 47.1376 25.1211 48.7427 27.0966 48.7427C28.7251 48.7427 30.1019 47.6519 30.5353 46.1621H31.1303C30.9754 46.7594 30.6855 47.3081 30.2956 47.7826L29.9672 48.1822L30.1037 48.6812C30.5164 50.1905 31.889 51.3233 33.5481 51.3233C35.5236 51.3233 37.1287 49.7182 37.1287 47.7427V11.6143C37.1287 9.6388 35.5236 8.03372 33.5481 8.03372C31.8887 8.03372 30.5164 9.16731 30.1037 10.6756L29.9672 11.1747L30.2956 11.5744C30.6854 12.0487 30.9753 12.5976 31.1302 13.1949H30.5353C30.1019 11.7051 28.7251 10.6143 27.0966 10.6143C25.1211 10.6143 23.516 12.2194 23.516 14.1949C23.516 15.8234 24.6067 17.2002 26.0966 17.6336V18.2289C25.487 18.071 24.9284 17.7727 24.448 17.3711L24.0866 17.0689L23.6235 17.1552C21.3657 17.5757 19.6451 19.5516 19.6451 21.9367C19.6451 24.6236 21.8299 26.8076 24.516 26.8076C26.8601 26.8076 28.8216 25.1451 29.2838 22.9367H29.8755C29.4044 25.4664 27.18 27.3882 24.516 27.3882C23.2948 27.3882 22.1719 26.9672 21.2492 26.2676L20.1433 25.4292L20.2045 25.4056L19.6928 24.4141C19.2983 23.6496 19.0645 22.8173 19.0645 21.9367C19.0645 19.6147 20.536 17.6337 22.6063 16.8516ZM19.6451 33.1172V33.7371L19.1632 33.5517C17.5949 32.9483 16.4839 31.4411 16.4839 29.6785C16.4839 27.9164 17.595 26.4088 19.163 25.806L19.6451 25.6207V26.2398C18.1552 26.6732 17.0645 28.05 17.0645 29.6785C17.0645 31.307 18.1552 32.6838 19.6451 33.1172Z" stroke="#161616" stroke-width="2"/>
<path d="M50.1836 9.81727L50.5821 10.6389L51.4364 10.3165C51.9108 10.1375 52.3995 10.0337 52.9022 10.0337C55.1963 10.0337 57.0634 11.9013 57.0634 14.1949C57.0634 14.664 56.9682 15.1227 56.8047 15.5783L56.4724 16.5041L57.3925 16.8516C59.4628 17.6337 60.9343 19.6147 60.9343 21.9367C60.9343 22.8176 60.7009 23.65 60.3066 24.4141L59.795 25.4056L59.8557 25.429L58.7496 26.2676C57.8269 26.9672 56.704 27.3882 55.4828 27.3882C52.8193 27.3882 50.5945 25.4664 50.1233 22.9367H50.7151C51.1774 25.1452 53.1393 26.8076 55.4828 26.8076C58.1697 26.8076 60.3537 24.6235 60.3537 21.9367C60.3537 19.5517 58.6332 17.5757 56.376 17.1552L55.9131 17.0689L55.5517 17.3708C55.0708 17.7726 54.5119 18.071 53.9022 18.2289V17.6336C55.3921 17.2002 56.4828 15.8234 56.4828 14.1949C56.4828 12.2194 54.8778 10.6143 52.9022 10.6143C51.2737 10.6143 49.8969 11.7051 49.4635 13.1949H48.8686C49.0235 12.5976 49.3134 12.0487 49.7032 11.5744L50.0316 11.1747L49.8951 10.6756C49.4824 9.16731 48.1101 8.03372 46.4507 8.03372C44.4752 8.03372 42.8701 9.6388 42.8701 11.6143V47.7427C42.8701 49.7182 44.4752 51.3233 46.4507 51.3233C48.1098 51.3233 49.4824 50.1905 49.8951 48.6812L50.0316 48.1822L49.7032 47.7826C49.3134 47.3081 49.0235 46.7594 48.8685 46.1621H49.4635C49.8969 47.6519 51.2737 48.7427 52.9022 48.7427C54.8778 48.7427 56.4828 47.1376 56.4828 45.1621C56.4828 43.5335 55.3921 42.1568 53.9022 41.7233V41.1283C54.5118 41.2863 55.0707 41.5849 55.5517 41.9868L55.9131 42.2887L56.376 42.2024C58.6333 41.7819 60.3537 39.8058 60.3537 37.4203C60.3537 34.7342 58.1698 32.5494 55.4828 32.5494C53.1393 32.5494 51.1775 34.2123 50.7151 36.4203H50.1234C50.5946 33.891 52.8194 31.9688 55.4828 31.9688C56.7037 31.9688 57.8266 32.3902 58.7496 33.09L59.856 33.9288L59.7951 33.9523L60.3066 34.9435C60.7009 35.7077 60.9343 36.54 60.9343 37.4203C60.9343 39.743 59.4627 41.7239 57.3927 42.5053L56.4723 42.8527L56.8047 43.7787C56.9682 44.2342 57.0634 44.6936 57.0634 45.1621C57.0634 47.4563 55.1964 49.3233 52.9022 49.3233C52.3995 49.3233 51.9108 49.2195 51.4364 49.0405L50.582 48.7181L50.1835 49.5398C49.504 50.9413 48.0878 51.9039 46.4507 51.9039C44.1566 51.9039 42.2896 50.0369 42.2896 47.7427V11.6143C42.2896 9.32068 44.1566 7.45312 46.4507 7.45312C48.0876 7.45312 49.504 8.41616 50.1836 9.81727ZM60.3537 26.2398V25.6205L60.8365 25.806C62.4042 26.4087 63.5149 27.9162 63.5149 29.6785C63.5149 31.4413 62.4043 32.9483 60.8362 33.5517L60.3537 33.7373V33.1172C61.8436 32.6838 62.9343 31.307 62.9343 29.6785C62.9343 28.05 61.8436 26.6732 60.3537 26.2398Z" stroke="#161616" stroke-width="2"/>
<path d="M59.6327 8.77647L59.6328 8.77654C65.3786 14.176 68.676 21.7971 68.676 29.6779C68.676 39.3144 63.8733 48.2505 55.8265 53.5873C53.7947 54.9328 52.1779 56.7658 51.0634 58.8902L50.295 60.3548H51.9489H54.4827V60.9354H50.9308H50.1821L49.9713 61.6537C49.7116 62.538 49.516 63.4577 49.4175 64.4135L49.3039 65.516H50.4122H51.9021V66.0966H50.3215H49.3215V67.0966V70.9675C49.3215 71.1284 49.1921 71.2578 49.0312 71.2578H47.7409H46.7409V72.2578C46.7409 75.9752 43.7166 78.9996 39.9991 78.9996C36.2817 78.9996 33.2573 75.9752 33.2573 72.2578V71.2578H32.2573H30.9671C30.8064 71.2578 30.6768 71.1281 30.6768 70.9675V67.0966V66.0966H29.6768H28.0962V65.516H29.5747H30.6955L30.5682 64.4025C30.4582 63.4399 30.2424 62.5232 29.9808 61.6488L29.7674 60.9354H29.0228H25.5156V60.3548H27.9933H29.6498L28.8782 58.889C27.75 56.7458 26.1265 54.8922 24.086 53.528L24.0857 53.5278C16.0696 48.1719 11.3504 39.3482 11.3234 29.7646L11.9041 29.7826C11.938 39.1615 16.563 47.803 24.4078 53.0461L24.4081 53.0463C26.8629 54.6857 28.7347 57.0265 29.9039 59.7494L30.1639 60.3548H30.8228H49.1219H49.7825L50.0418 59.7472C51.1931 57.0482 53.0555 54.7262 55.5048 53.1023C63.3875 47.8785 68.0954 39.1209 68.0954 29.6779C68.0954 21.8446 64.9464 14.5656 59.2358 9.19909L59.2356 9.19896C53.7692 4.064 46.6812 1.38346 39.2011 1.59275L39.1651 1.01284C46.8109 0.787782 54.0477 3.5271 59.6327 8.77647ZM34.8379 71.2578H33.8379V72.2578C33.8379 75.6565 36.6004 78.419 39.9991 78.419C43.3979 78.419 46.1603 75.6565 46.1603 72.2578V71.2578H45.1603H34.8379ZM47.7409 70.6772H48.7409V69.6772V67.0966V66.0966H47.7409H32.2573H31.2573V67.0966V69.6772V70.6772H32.2573H47.7409ZM47.8329 65.516H48.749L48.8291 64.6034C48.9033 63.7579 49.0163 62.9452 49.2055 62.1735L49.5089 60.9354H48.2342H31.7168H30.4332L30.7472 62.18C30.9446 62.9627 31.0765 63.7758 31.1588 64.6138L31.2475 65.516H32.154H47.8329Z" stroke="#161616" stroke-width="2"/>
<path d="M16.3161 5.01314L15.483 3.76079L14.6506 5.01356C14.1515 5.76462 13.5044 6.41179 12.7533 6.91085L11.5005 7.74328L12.7529 8.57635C13.5045 9.07636 14.1517 9.72313 14.6506 10.4739L15.483 11.7267L16.3161 10.4743C16.8159 9.72296 17.4627 9.07618 18.2141 8.57635L19.4664 7.74328L18.2137 6.91085C17.4629 6.41197 16.8161 5.76479 16.3161 5.01314ZM15.1932 14.1952C15.1932 10.7972 12.4308 8.03404 9.032 8.03404C8.8714 8.03404 8.7417 7.90433 8.7417 7.74374C8.7417 7.58347 8.87171 7.45344 9.032 7.45344C12.4307 7.45344 15.1932 4.691 15.1932 1.29225C15.1932 1.13198 15.3232 1.00195 15.4835 1.00195C15.6441 1.00195 15.7738 1.13166 15.7738 1.29225C15.7738 4.691 18.5362 7.45344 21.935 7.45344C22.0956 7.45344 22.2253 7.58315 22.2253 7.74374C22.2253 7.90464 22.0959 8.03404 21.935 8.03404C18.5361 8.03404 15.7738 10.7972 15.7738 14.1952C15.7738 14.3561 15.6444 14.4855 15.4835 14.4855C15.3229 14.4855 15.1932 14.3558 15.1932 14.1952Z" stroke="#161616" stroke-width="2"/>
<path d="M6.90889 23.3763L7.74132 24.6291L8.57439 23.3767C9.07422 22.6253 9.721 21.9785 10.4724 21.4787L11.7234 20.6466L10.4728 19.8138C9.72084 19.313 9.07404 18.6666 8.57439 17.9155L7.74224 16.6645L6.90945 17.9151C6.40851 18.6673 5.76213 19.3145 5.0116 19.8132L3.75883 20.6456L5.01118 21.4787C5.76283 21.9787 6.41001 22.6255 6.90889 23.3763ZM14.4836 20.6461C14.4836 20.807 14.3542 20.9364 14.1933 20.9364C10.7944 20.9364 8.03208 23.6995 8.03208 27.0976C8.03208 27.2585 7.90269 27.3879 7.74178 27.3879C7.58118 27.3879 7.45149 27.2582 7.45149 27.0976C7.45149 23.6995 4.68913 20.9364 1.2903 20.9364C1.1297 20.9364 1 20.8067 1 20.6461C1 20.4858 1.13002 20.3558 1.2903 20.3558C4.68905 20.3558 7.45149 17.5934 7.45149 14.1946C7.45149 14.0343 7.5815 13.9043 7.74178 13.9043C7.90238 13.9043 8.03208 14.034 8.03208 14.1946C8.03208 17.5934 10.7945 20.3558 14.1933 20.3558C14.3539 20.3558 14.4836 20.4855 14.4836 20.6461Z" stroke="#161616" stroke-width="2"/>
</svg>
