<svg width="82" height="48" viewBox="0 0 82 48" fill="none" xmlns="http://www.w3.org/2000/svg">
<path d="M33.5001 33.4445H16.0001C15.5433 33.4445 15.175 33.8167 15.175 34.2716V39.2878C15.175 39.7458 15.5438 40.1149 16.0001 40.1149H33.5001C33.9563 40.1149 34.3252 39.7458 34.325 39.2878C34.325 39.2878 34.325 39.2878 34.325 39.2877V34.2716C34.325 33.8168 33.957 33.4445 33.5001 33.4445ZM32.6751 38.4609H16.8251V35.0987H32.6751V38.4609Z" fill="#161616" stroke="white" stroke-width="0.4"/>
<path d="M66.0001 0.837109H48.4999C48.0435 0.837109 47.675 1.20785 47.675 1.66426C47.675 2.12074 48.0435 2.49126 48.4999 2.49126H65.9999C66.4564 2.49126 66.825 2.12077 66.825 1.66426C66.825 1.20788 66.4567 0.837109 66.0001 0.837109Z" fill="#161616" stroke="white" stroke-width="0.4"/>
<path d="M32.9164 34.8552L32.9165 34.8553C33.0775 35.0166 33.2889 35.0978 33.5001 35.0978C33.7112 35.0978 33.9226 35.0166 34.0836 34.8553L34.0837 34.8552L66.5834 2.24867C66.5834 2.24866 66.5834 2.24864 66.5834 2.24863C66.9055 1.92561 66.9052 1.4027 66.5835 1.07973C66.2612 0.756209 65.7388 0.756275 65.4164 1.07969L32.9164 33.6863C32.5945 34.0092 32.5946 34.5321 32.9164 34.8552Z" fill="#161616" stroke="white" stroke-width="0.4"/>
<path d="M32.9166 39.8721L32.9164 39.8719C32.5946 39.5489 32.5945 39.0258 32.9164 38.7029L32.9164 38.7029L65.4164 6.09727C65.7388 5.77385 66.2612 5.77379 66.5835 6.09731C66.9052 6.42029 66.9055 6.94319 66.5834 7.26622C66.5834 7.26623 66.5834 7.26625 66.5834 7.26626M32.9166 39.8721L66.4418 7.12502L66.5834 7.26626M32.9166 39.8721C33.0776 40.0332 33.2889 40.1144 33.5001 40.1144C33.711 40.1144 33.9225 40.0335 34.0834 39.872L32.9166 39.8721ZM66.5834 7.26626L34.0835 39.8719L66.5834 7.26626Z" fill="#161616" stroke="white" stroke-width="0.4"/>
<path d="M16.5837 34.8552L16.442 34.714L16.5837 34.8552L49.0835 2.24863C49.4054 1.92568 49.4054 1.40278 49.0836 1.07973C48.7613 0.756209 48.2388 0.756275 47.9164 1.07969L15.4166 33.6862C15.4166 33.6862 15.4165 33.6863 15.4165 33.6863C15.0945 34.0092 15.0945 34.5322 15.4165 34.8552L15.4165 34.8552C15.5774 35.0166 15.7889 35.0978 16 35.0978C16.2111 35.0978 16.4227 35.0167 16.5837 34.8552Z" fill="#161616" stroke="white" stroke-width="0.4"/>
<path d="M66.0001 0.837109C65.5435 0.837109 65.175 1.20777 65.175 1.6642V6.68174C65.175 7.13817 65.5435 7.50884 66.0001 7.50884C66.4566 7.50884 66.8249 7.1381 66.8249 6.68174V1.6642C66.8249 1.20784 66.4566 0.837109 66.0001 0.837109Z" fill="#161616" stroke="white" stroke-width="0.4"/>
<path d="M37.8334 26.0761L29.0841 34.8546L28.9424 34.9967L28.8008 34.8546L27.917 33.968L27.7762 33.8268L27.9169 33.6856L36.6664 24.9076C36.6664 24.9076 36.6664 24.9076 36.6664 24.9076C38.5994 22.9671 40.4195 22.6107 41.7743 22.7628C43.1054 22.9123 43.9598 23.5492 44.0067 23.5855C44.0071 23.5858 44.0074 23.5861 44.0077 23.5863L43.8839 23.7434C44.1572 23.956 44.2062 24.3496 43.9937 24.6232C43.7838 24.8968 43.3908 24.9477 43.1173 24.7328L37.8334 26.0761ZM37.8334 26.0761C39.2889 24.6165 40.567 24.3247 41.4745 24.3849C42.3834 24.4451 42.9547 24.8608 42.9952 24.8913M37.8334 26.0761L42.9952 24.8913M42.9952 24.8913C43.3561 25.1734 43.8743 25.1064 44.1517 24.7459L42.9952 24.8913Z" fill="#161616" stroke="white" stroke-width="0.4"/>
<path d="M37.2087 8.60512L37.2087 8.60507C36.8863 8.28164 36.3639 8.28164 36.0415 8.60507L32.2916 12.3672C32.2916 12.3672 32.2915 12.3672 32.2915 12.3672C31.9695 12.6902 31.9695 13.2132 32.2915 13.5363C32.4525 13.6978 32.664 13.7787 32.875 13.7787C33.0862 13.7787 33.2975 13.6978 33.4586 13.5364L33.4587 13.5363L37.2086 9.77404C37.2086 9.77403 37.2086 9.77401 37.2087 9.77399C37.5306 9.45117 37.5304 8.92812 37.2087 8.60512Z" fill="#161616" stroke="white" stroke-width="0.4"/>
<path d="M19.1249 40.968H1.6249C1.16807 40.968 0.8 41.34 0.8 41.7951V46.8114C0.8 47.2694 1.16862 47.6384 1.6249 47.6384H19.1249C19.5812 47.6384 19.95 47.2692 19.95 46.8114V41.7951C19.95 41.34 19.5817 40.968 19.1249 40.968ZM18.2999 45.9842H2.44995V42.6219H18.2999V45.9842Z" fill="#161616" stroke="white" stroke-width="0.4"/>
<path d="M38.5025 8.35859H34.1249C33.6683 8.35859 33.3 8.72924 33.3 9.18571C33.3 9.64212 33.6682 10.013 34.1249 10.013H38.5025C38.959 10.013 39.3275 9.64219 39.3275 9.18571C39.3275 8.72917 38.959 8.35859 38.5025 8.35859Z" fill="#161616" stroke="white" stroke-width="0.4"/>
<path d="M24.6695 41.2497C24.3473 40.9261 23.8249 40.9262 23.5025 41.2496L18.5416 46.2269C18.2195 46.5498 18.2195 47.0728 18.5415 47.3959C18.7025 47.5574 18.9142 47.6384 19.125 47.6384C19.336 47.6384 19.5475 47.5574 19.7085 47.3959L24.6694 42.4186C24.6694 42.4186 24.6695 42.4186 24.6695 42.4186C24.9916 42.0956 24.9912 41.5726 24.6695 41.2497Z" fill="#161616" stroke="white" stroke-width="0.4"/>
<path d="M1.04152 42.3809L1.04161 42.381C1.20249 42.5422 1.41389 42.6233 1.62501 42.6233C1.83613 42.6233 2.04754 42.5422 2.20841 42.381L2.2085 42.3809L34.7084 9.77411C34.7085 9.77408 34.7085 9.77405 34.7085 9.77402C35.0306 9.45119 35.0305 8.92813 34.7086 8.60513C34.3863 8.2816 33.8639 8.28166 33.5416 8.60508L1.04157 41.2117C1.04155 41.2117 1.04154 41.2118 1.04152 41.2118C0.719453 41.5347 0.719533 42.0578 1.04152 42.3809Z" fill="#161616" stroke="white" stroke-width="0.4"/>
<path d="M47.8751 40.968H30.3751C29.9183 40.968 29.55 41.34 29.55 41.7951V46.8114C29.55 47.2694 29.9188 47.6384 30.3751 47.6384H47.8749C48.3312 47.6384 48.7 47.2692 48.7 46.8114V41.7951C48.7 41.34 48.3319 40.968 47.8751 40.968ZM47.05 45.9842H31.1999V42.6219H47.05V45.9842Z" fill="#161616" stroke="white" stroke-width="0.4"/>
<path d="M80.3747 8.3625H66.0059C65.5493 8.3625 65.1809 8.73297 65.1809 9.18944C65.1809 9.64583 65.5492 10.0165 66.0059 10.0165H80.3747C80.8313 10.0165 81.1996 9.6458 81.1996 9.18944C81.1996 8.73301 80.8313 8.3625 80.3747 8.3625Z" fill="#161616" stroke="white" stroke-width="0.4"/>
<path d="M47.2915 42.3809L47.2916 42.381C47.4525 42.5422 47.6641 42.6233 47.875 42.6233C48.0863 42.6233 48.2975 42.5421 48.4585 42.3811L48.4587 42.3809L80.9584 9.77411C80.9585 9.77408 80.9585 9.77405 80.9585 9.77402C81.2807 9.45112 81.2803 8.92806 80.9586 8.60513C80.6363 8.2816 80.1139 8.28166 79.7916 8.60508L47.2916 41.2117C47.2916 41.2117 47.2915 41.2118 47.2915 41.2118C46.9695 41.5347 46.9695 42.0578 47.2915 42.3809Z" fill="#161616" stroke="white" stroke-width="0.4"/>
<path d="M79.7916 13.6205L79.7916 13.6206L47.2916 46.2262L47.2915 46.2262H47.2915C46.9695 46.5492 46.9695 47.0721 47.2915 47.3952L47.2915 47.3952C47.4525 47.5567 47.6642 47.6376 47.875 47.6376C48.0862 47.6376 48.2975 47.5566 48.4586 47.3953L48.4587 47.3952L80.9585 14.7897C80.9585 14.7897 80.9585 14.7897 80.9585 14.7897C81.2806 14.4667 81.2805 13.9436 80.9585 13.6206C80.6363 13.2973 80.114 13.2973 79.7916 13.6205Z" fill="#161616" stroke="white" stroke-width="0.4"/>
<path d="M80.3749 8.3625C79.9184 8.3625 79.55 8.73301 79.55 9.18943V14.2071C79.55 14.6635 79.9184 15.034 80.3749 15.034C80.8314 15.034 81.1998 14.6635 81.1998 14.2071V9.18943C81.1998 8.73301 80.8314 8.3625 80.3749 8.3625Z" fill="#161616" stroke="white" stroke-width="0.4"/>
<path d="M36.0415 42.3804L36.0416 42.3805C36.2025 42.5417 36.4141 42.6229 36.625 42.6229C36.8362 42.6229 37.0477 42.5417 37.2085 42.3804L42.2085 37.364C42.2085 37.364 42.2085 37.3639 42.2086 37.3639C42.2086 37.3639 42.2086 37.3639 42.2086 37.3639C42.5308 37.041 42.5303 36.5179 42.2086 36.195C41.8864 35.8714 41.3638 35.8715 41.0415 36.1949L36.0416 41.2112C36.0416 41.2112 36.0415 41.2113 36.0415 41.2113C35.7195 41.5342 35.7195 42.0573 36.0415 42.3804Z" fill="#161616" stroke="white" stroke-width="0.4"/>
<path d="M43.4584 42.3783L43.4585 42.3782L52.2086 33.6022L52.2086 33.6021C52.5305 33.2792 52.5304 32.7563 52.2086 32.4332C51.8864 32.1097 51.3638 32.1098 51.0415 32.4332C51.0415 32.4332 51.0415 32.4332 51.0415 32.4332L42.2916 41.2091C41.9695 41.532 41.9695 42.0551 42.2915 42.3782C42.4523 42.5395 42.664 42.6207 42.875 42.6207C43.0861 42.6207 43.2975 42.5395 43.4584 42.3783Z" fill="#161616" stroke="white" stroke-width="0.4"/>
<path d="M67.2411 8.65667L67.2408 8.65702L61.9013 14.0131L61.7606 14.1543L61.9013 14.2955L62.785 15.1821L62.9266 15.3242L63.0683 15.1821L68.4077 9.82728C68.4077 9.82727 68.4077 9.82727 68.4077 9.82726C68.7299 9.50424 68.7295 8.98069 68.4078 8.6577C68.0853 8.33398 67.5632 8.33519 67.2411 8.65667Z" fill="#161616" stroke="white" stroke-width="0.4"/>
<path d="M52.2936 1.0797L52.2936 1.07968C52.616 0.756277 53.1384 0.756211 53.4607 1.07973C53.7824 1.40269 53.7827 1.92558 53.4606 2.24859C53.4606 2.24861 53.4606 2.24863 53.4606 2.24865L47.2096 8.52114L47.2095 8.52121L47.0678 8.38004C46.9458 8.50263 46.7859 8.56384 46.626 8.56384C46.4661 8.56384 46.3062 8.50247 46.1842 8.38004C45.9399 8.13501 45.9399 7.73837 46.1842 7.4935L52.2936 1.0797ZM52.2936 1.0797L46.0425 7.35226C46.0425 7.35227 46.0425 7.35231 46.0425 7.35232L52.2936 1.0797Z" fill="#161616" stroke="white" stroke-width="0.4"/>
<path d="M59.7083 1.07973C59.3861 0.756209 58.8637 0.756274 58.5413 1.07969L46.0425 13.6191C45.7204 13.942 45.7205 14.4652 46.0425 14.7882C46.2035 14.9497 46.415 15.0307 46.626 15.0307C46.8369 15.0307 47.0485 14.95 47.2096 14.7881L59.7082 2.24867C60.0304 1.92566 60.0301 1.40272 59.7083 1.07973Z" fill="#161616" stroke="white" stroke-width="0.4"/>
</svg>
