<svg width="62" height="82" viewBox="0 0 62 82" fill="none" xmlns="http://www.w3.org/2000/svg">
<path d="M50.375 20.5285H7.8749C5.35174 20.5285 3.3 22.5875 3.3 25.1168V30.1319C3.3 32.6613 5.35174 34.7203 7.8749 34.7203H50.375C52.8981 34.7203 54.9499 32.6613 54.9499 30.1319V25.1168C54.9499 22.5875 52.8981 20.5285 50.375 20.5285ZM53.3001 30.1321C53.3001 31.7505 51.9864 33.0667 50.375 33.0667H7.8749C6.26286 33.0667 4.94995 31.7505 4.94995 30.1321V25.117C4.94995 23.4986 6.26286 22.1824 7.8749 22.1824H50.375C51.9864 22.1824 53.3001 23.4986 53.3001 25.117V30.1321Z" fill="#161616" stroke="#161616" stroke-width="0.4"/>
<path d="M60.3751 25.5441C59.9184 25.5441 59.55 25.9147 59.55 26.3711V40.1629C59.55 40.6193 59.9185 40.9897 60.3751 40.9897C60.8314 40.9897 61.2 40.6191 61.2 40.1629V26.3711C61.2 25.9147 60.8314 25.5441 60.3751 25.5441Z" fill="#161616" stroke="#161616" stroke-width="0.4"/>
<path d="M57.875 28.052C57.4184 28.052 57.0501 28.4226 57.0501 28.8789V38.9096C57.0501 39.366 57.4185 39.7364 57.875 39.7364C58.3314 39.7364 58.7 39.366 58.7 38.9096V28.8789C58.7 28.4225 58.3315 28.052 57.875 28.052Z" fill="#161616" stroke="#161616" stroke-width="0.4"/>
<path d="M60.3751 25.5441H56.6249C56.1683 25.5441 55.8 25.9149 55.8 26.3713C55.8 26.8277 56.1683 27.1984 56.6249 27.1984H60.3751C60.8315 27.1984 61.2 26.8277 61.2 26.3713C61.2 25.9149 60.8315 25.5441 60.3751 25.5441Z" fill="#161616" stroke="#161616" stroke-width="0.4"/>
<path d="M57.875 28.052H56.625C56.1682 28.052 55.8001 28.4231 55.8001 28.8796C55.8001 29.3362 56.1682 29.7073 56.625 29.7073H57.875C58.3317 29.7073 58.7 29.3362 58.7 28.8796C58.7 28.4231 58.3317 28.052 57.875 28.052Z" fill="#161616" stroke="#161616" stroke-width="0.4"/>
<path d="M2.87496 28.052H1.62504C1.16833 28.052 0.8 28.4231 0.8 28.8796C0.8 29.3362 1.16833 29.7073 1.62504 29.7073H2.87496C3.33167 29.7073 3.7 29.3362 3.7 28.8796C3.7 28.4231 3.33167 28.052 2.87496 28.052Z" fill="#161616" stroke="#161616" stroke-width="0.4"/>
<path d="M2.87496 25.5441H1.62504C1.1685 25.5441 0.8 25.9148 0.8 26.3713C0.8 26.8277 1.1685 27.1984 1.62504 27.1984H2.87496C3.3315 27.1984 3.7 26.8277 3.7 26.3713C3.7 25.9148 3.3315 25.5441 2.87496 25.5441Z" fill="#161616" stroke="#161616" stroke-width="0.4"/>
<path d="M57.5427 38.152C57.9616 37.9667 58.4474 38.1578 58.6294 38.5762C58.6295 38.5763 58.6296 38.5764 58.6296 38.5766L58.4462 38.6563C58.5854 38.9728 58.4426 39.3432 58.1264 39.4822L57.5427 38.152ZM57.5427 38.152L26.2933 51.9441C26.2933 51.9442 26.2932 51.9442 26.2931 51.9442C25.875 52.1271 25.6867 52.6164 25.8698 53.0328C26.0056 53.3434 26.3086 53.5271 26.6255 53.5271C26.7367 53.5271 26.8497 53.5042 26.9574 53.4564C26.9575 53.4563 26.9577 53.4563 26.9578 53.4562L58.2069 39.6653C58.207 39.6653 58.207 39.6653 58.2071 39.6653L57.5427 38.152Z" fill="#161616" stroke="#161616" stroke-width="0.4"/>
<path d="M60.0425 39.4053L60.0428 39.4052C60.4598 39.2218 60.9469 39.4106 61.1292 39.8295C61.3123 40.2463 61.1246 40.7347 60.7069 40.9186L60.0425 39.4053ZM60.0425 39.4053L28.7932 53.1974C28.7931 53.1974 28.7931 53.1974 28.7931 53.1975C28.3751 53.3807 28.1867 53.8698 28.3698 54.2864C28.5054 54.597 28.8087 54.7807 29.1255 54.7807C29.2366 54.7807 29.3498 54.7578 29.4577 54.7094C29.4579 54.7093 29.4581 54.7092 29.4583 54.7091L60.7067 40.9187L60.0425 39.4053Z" fill="#161616" stroke="#161616" stroke-width="0.4"/>
<path d="M29.1251 53.1281C28.6685 53.1281 28.3 53.4987 28.3 53.9552V58.9702C28.3 59.4264 28.6686 59.7969 29.1251 59.7969C29.5815 59.7969 29.9501 59.4264 29.9501 58.9702V53.9552C29.9501 53.4987 29.5816 53.1281 29.1251 53.1281Z" fill="#161616" stroke="#161616" stroke-width="0.4"/>
<path d="M26.625 51.8742C26.1685 51.8742 25.8001 52.2448 25.8001 52.701V58.97C25.8001 59.4262 26.1685 59.7968 26.625 59.7968C27.0815 59.7968 27.4501 59.4263 27.4501 58.97V52.701C27.4501 52.2447 27.0815 51.8742 26.625 51.8742Z" fill="#161616" stroke="#161616" stroke-width="0.4"/>
<path d="M30.3752 60.6516H25.3751C24.9187 60.6516 24.5502 61.0218 24.5502 61.4784V77.7777C24.5502 79.6164 26.0411 81.1121 27.8752 81.1121C29.7091 81.1121 31.2001 79.6164 31.2002 77.7777V61.4784C31.2002 61.0217 30.8316 60.6516 30.3752 60.6516ZM29.5501 77.7777C29.5501 78.7047 28.7981 79.4584 27.8752 79.4584C26.9522 79.4584 26.2002 78.7047 26.2002 77.7777V62.3052H29.5501V77.7777Z" fill="#161616" stroke="#161616" stroke-width="0.4"/>
<path d="M11.2002 11.9532V11.9531C11.2002 10.4602 9.98994 9.24531 8.50018 9.24531C7.01043 9.24531 5.80012 10.4602 5.80012 11.9531C5.80012 12.4095 6.16868 12.7801 6.62518 12.7801C7.08168 12.7801 7.45023 12.4095 7.45023 11.9531C7.45023 11.3718 7.92217 10.8993 8.50018 10.8993C9.07819 10.8993 9.55014 11.3718 9.55014 11.9531C9.55014 12.4094 9.91847 12.7801 10.375 12.7801C10.8315 12.7801 11.2 12.4095 11.2002 11.9532Z" fill="#161616" stroke="#161616" stroke-width="0.4"/>
<path d="M6.62494 11.1242C6.16845 11.1242 5.79988 11.4948 5.79988 11.9512V18.8468C5.79988 19.3032 6.16845 19.6738 6.62494 19.6738C7.08139 19.6738 7.45 19.3034 7.45 18.8468V11.9512C7.45 11.4948 7.08142 11.1242 6.62494 11.1242Z" fill="#161616" stroke="#161616" stroke-width="0.4"/>
<path d="M14.9502 3.17574V3.17565C14.9502 1.68269 13.7401 0.467969 12.2502 0.467969C10.7603 0.467969 9.55012 1.68286 9.55012 3.17565C9.55012 3.63198 9.91846 4.00261 10.375 4.00261C10.8315 4.00261 11.2001 3.63205 11.2001 3.17565C11.2001 2.59439 11.672 2.12189 12.25 2.12189C12.828 2.12189 13.3 2.59439 13.3 3.17565C13.3 3.63205 13.6685 4.00261 14.125 4.00261C14.5815 4.00261 14.95 3.63224 14.9502 3.17574Z" fill="#161616" stroke="#161616" stroke-width="0.4"/>
<path d="M10.375 2.34883C9.91848 2.34883 9.55012 2.71945 9.55012 3.17578V11.9524C9.55012 12.4087 9.91848 12.7793 10.375 12.7793C10.8315 12.7793 11.2001 12.4088 11.2001 11.9524V3.17578C11.2001 2.71938 10.8315 2.34883 10.375 2.34883Z" fill="#161616" stroke="#161616" stroke-width="0.4"/>
<path d="M14.1249 2.34883C13.6684 2.34883 13.2999 2.71939 13.2999 3.17579V16.9676C13.2999 17.424 13.6684 17.7946 14.1249 17.7946C14.5814 17.7946 14.95 17.4243 14.95 16.9678V3.17579C14.95 2.71939 14.5814 2.34883 14.1249 2.34883Z" fill="#161616" stroke="#161616" stroke-width="0.4"/>
<path d="M9.54992 44.551C9.54992 44.0945 9.91822 43.7238 10.3748 43.7238C10.8313 43.7238 11.1999 44.0944 11.1999 44.5509L9.54992 44.551ZM9.54992 44.551C9.54992 45.1317 9.07794 45.6046 8.49996 45.6046M9.54992 44.551L8.49996 45.6046M8.49996 45.6046C7.92197 45.6046 7.44999 45.1317 7.44999 44.551M8.49996 45.6046L7.44999 44.551M7.44999 44.551C7.44999 44.0944 7.08147 43.7238 6.62494 43.7238M7.44999 44.551L6.62494 43.7238M6.62494 43.7238C6.1684 43.7238 5.79988 44.0944 5.79988 44.551M6.62494 43.7238L5.79988 44.551M5.79988 44.551C5.79988 46.0446 7.01023 47.2587 8.49996 47.2587M5.79988 44.551L8.49996 47.2587M8.49996 47.2587C9.98983 47.2587 11.2 46.0446 11.1999 44.551L8.49996 47.2587Z" fill="#161616" stroke="#161616" stroke-width="0.4"/>
<path d="M10.375 38.7082C9.91855 38.7082 9.55012 39.0786 9.55012 39.535V44.5505C9.55012 45.0067 9.91852 45.3772 10.375 45.3772C10.8315 45.3772 11.2001 45.0067 11.2001 44.5503V39.535C11.2001 39.0785 10.8315 38.7082 10.375 38.7082Z" fill="#161616" stroke="#161616" stroke-width="0.4"/>
<path d="M6.62494 34.9484C6.16844 34.9484 5.79988 35.319 5.79988 35.7754V44.5524C5.79988 45.0087 6.16847 45.3792 6.62494 45.3792C7.0814 45.3792 7.45 45.0087 7.45 44.5524V35.7754C7.45 35.319 7.08144 34.9484 6.62494 34.9484Z" fill="#161616" stroke="#161616" stroke-width="0.4"/>
<path d="M13.2998 39.535C13.2998 39.0786 13.6684 38.7082 14.1248 38.7082C14.5812 38.7082 14.9499 39.0785 14.9499 39.535L13.2998 39.535ZM13.2998 39.535C13.2998 40.1163 12.8278 40.5888 12.2498 40.5888M13.2998 39.535L12.2498 40.5888M12.2498 40.5888C11.6718 40.5888 11.1998 40.1163 11.1998 39.535M12.2498 40.5888L11.1998 39.535M11.1998 39.535C11.1998 39.0786 10.8312 38.7082 10.3748 38.7082M11.1998 39.535L10.3748 38.7082M10.3748 38.7082C9.91828 38.7082 9.54988 39.0786 9.54988 39.535M10.3748 38.7082L9.54988 39.535M9.54988 39.535C9.54988 41.028 10.7602 42.243 12.25 42.243M9.54988 39.535L12.25 42.243M12.25 42.243C13.7399 42.243 14.95 41.028 14.9499 39.535L12.25 42.243Z" fill="#161616" stroke="#161616" stroke-width="0.4"/>
<path d="M17.8749 49.9934C17.4184 49.9934 17.0498 50.3639 17.0498 50.8202C17.0498 51.4009 16.5778 51.8741 15.9999 51.8741C15.422 51.8741 14.95 51.4009 14.95 50.8202C14.95 50.3639 14.5814 49.9934 14.1249 49.9934C13.6685 49.9934 13.2999 50.3639 13.2999 50.8202C13.2999 52.3138 14.5102 53.5279 15.9999 53.5279C17.4896 53.5279 18.6998 52.3136 18.6998 50.8202C18.6998 50.364 18.3314 49.9934 17.8749 49.9934Z" fill="#161616" stroke="#161616" stroke-width="0.4"/>
<path d="M17.8752 42.4699C17.4187 42.4699 17.0501 42.8405 17.0501 43.2967V50.8198C17.0501 51.2763 17.4187 51.6469 17.8752 51.6469C18.3318 51.6469 18.7001 51.2762 18.7001 50.8198V43.2967C18.7001 42.8405 18.3317 42.4699 17.8752 42.4699Z" fill="#161616" stroke="#161616" stroke-width="0.4"/>
<path d="M14.1249 38.7082C13.6685 38.7082 13.2999 39.0785 13.2999 39.535V50.8193C13.2999 51.2758 13.6684 51.6464 14.1249 51.6464C14.5815 51.6464 14.95 51.2758 14.95 50.8193V39.535C14.95 39.0785 14.5814 38.7082 14.1249 38.7082Z" fill="#161616" stroke="#161616" stroke-width="0.4"/>
<path d="M21.6252 42.4699C21.1687 42.4699 20.8001 42.8405 20.8001 43.2967C20.8001 43.8775 20.3282 44.3507 19.7502 44.3507C19.1721 44.3507 18.7001 43.8775 18.7001 43.2967C18.7001 42.8405 18.3317 42.4699 17.8752 42.4699C17.4187 42.4699 17.0501 42.8405 17.0501 43.2967C17.0501 44.7904 18.2605 46.0044 19.7502 46.0044C21.2399 46.0044 22.4502 44.7904 22.4502 43.2967C22.4502 42.8405 22.0817 42.4699 21.6252 42.4699Z" fill="#161616" stroke="#161616" stroke-width="0.4"/>
<path d="M25.3751 46.2316C24.9185 46.2316 24.5502 46.6023 24.5502 47.0588C24.5502 47.6395 24.0783 48.1124 23.5002 48.1124C22.9221 48.1124 22.4501 47.6395 22.4501 47.0588C22.4501 46.6022 22.0816 46.2316 21.6251 46.2316C21.1685 46.2316 20.8 46.6022 20.8 47.0588C20.8 48.5524 22.0103 49.7665 23.5001 49.7665C24.9898 49.7665 26.2001 48.5524 26.2001 47.0588C26.2001 46.6022 25.8316 46.2316 25.3751 46.2316Z" fill="#161616" stroke="#161616" stroke-width="0.4"/>
<path d="M21.6251 42.4699C21.1686 42.4699 20.8 42.8405 20.8 43.2969V47.0592C20.8 47.5155 21.1686 47.8862 21.6251 47.8862C22.0816 47.8862 22.4501 47.5155 22.4501 47.0592V43.2969C22.4501 42.8405 22.0816 42.4699 21.6251 42.4699Z" fill="#161616" stroke="#161616" stroke-width="0.4"/>
<path d="M28.2999 38.283C28.2999 37.8266 28.6685 37.4562 29.1249 37.4562C29.5814 37.4562 29.95 37.8266 29.95 38.283L28.2999 38.283ZM28.2999 38.283C28.2999 38.8643 27.8279 39.3368 27.2499 39.3368M28.2999 38.283L27.2499 39.3368M27.2499 39.3368C26.6719 39.3368 26.2 38.8643 26.2 38.283M27.2499 39.3368L26.2 38.283M26.2 38.283C26.2 37.8266 25.8313 37.4562 25.3749 37.4562M26.2 38.283L25.3749 37.4562M25.3749 37.4562C24.9184 37.4562 24.55 37.8266 24.55 38.283M25.3749 37.4562L24.55 38.283M24.55 38.283C24.55 39.776 25.7603 40.9906 27.2501 40.9906M24.55 38.283L27.2501 40.9906M27.2501 40.9906C28.74 40.9906 29.9502 39.7758 29.95 38.283L27.2501 40.9906Z" fill="#161616" stroke="#161616" stroke-width="0.4"/>
<path d="M25.3752 37.4562C24.9187 37.4562 24.5502 37.8267 24.5502 38.2831V47.06C24.5502 47.5162 24.9186 47.8868 25.3752 47.8868C25.8316 47.8868 26.2002 47.5162 26.2002 47.06V38.2831C26.2002 37.8266 25.8316 37.4562 25.3752 37.4562Z" fill="#161616" stroke="#161616" stroke-width="0.4"/>
<path d="M32.05 45.8046C32.05 45.3483 32.4186 44.9777 32.8751 44.9777C33.3316 44.9777 33.7 45.3484 33.7 45.8046L32.05 45.8046ZM32.05 45.8046C32.05 46.3854 31.578 46.8586 31.0001 46.8586M32.05 45.8046L31.0001 46.8586M31.0001 46.8586C30.4222 46.8586 29.9501 46.3854 29.9501 45.8046M31.0001 46.8586L29.9501 45.8046M29.9501 45.8046C29.9501 45.3483 29.5815 44.9777 29.1251 44.9777M29.9501 45.8046L29.1251 44.9777M29.1251 44.9777C28.6686 44.9777 28.3 45.3483 28.3 45.8046M29.1251 44.9777L28.3 45.8046M28.3 45.8046C28.3 47.2983 29.5103 48.5125 31.0001 48.5125M28.3 45.8046L31.0001 48.5125M31.0001 48.5125C32.4893 48.5125 33.7002 47.2982 33.7 45.8046L31.0001 48.5125Z" fill="#161616" stroke="#161616" stroke-width="0.4"/>
<path d="M32.8751 39.9621C32.4186 39.9621 32.05 40.3324 32.05 40.7889V45.8041C32.05 46.2608 32.4187 46.6309 32.8751 46.6309C33.3314 46.6309 33.7002 46.2608 33.7 45.8043C33.7 45.8042 33.7 45.8042 33.7 45.8042L33.7 40.7889C33.7 40.3327 33.3316 39.9621 32.8751 39.9621Z" fill="#161616" stroke="#161616" stroke-width="0.4"/>
<path d="M29.1251 37.4562C28.6686 37.4562 28.3 37.8266 28.3 38.283V45.8058C28.3 46.2625 28.6687 46.6326 29.1251 46.6326C29.5815 46.6326 29.9501 46.2625 29.9501 45.8058V38.283C29.9501 37.8266 29.5815 37.4562 29.1251 37.4562Z" fill="#161616" stroke="#161616" stroke-width="0.4"/>
<path d="M35.7999 40.7889C35.7999 40.3325 36.1685 39.9621 36.6249 39.9621C37.0814 39.9621 37.45 40.3326 37.45 40.7889L35.7999 40.7889ZM35.7999 40.7889C35.7999 41.3704 35.3273 41.8431 34.7499 41.8431M35.7999 40.7889L34.7499 41.8431M34.7499 41.8431C34.1714 41.8431 33.7 41.3705 33.7 40.7889M34.7499 41.8431L33.7 40.7889M33.7 40.7889C33.7 40.3327 33.3316 39.9621 32.8751 39.9621M33.7 40.7889L32.8751 39.9621M32.8751 39.9621C32.4186 39.9621 32.05 40.3325 32.05 40.7889M32.8751 39.9621L32.05 40.7889M32.05 40.7889C32.05 42.2826 33.2599 43.4968 34.7501 43.4968M32.05 40.7889L34.7501 43.4968M34.7501 43.4968C36.2391 43.4968 37.4502 42.2825 37.45 40.7889L34.7501 43.4968Z" fill="#161616" stroke="#161616" stroke-width="0.4"/>
<path d="M40.375 39.0227C39.9185 39.0227 39.5501 39.3933 39.5501 39.8496V43.9245C39.5501 44.381 39.9184 44.7516 40.375 44.7516C40.8316 44.7516 41.2001 44.381 41.2001 43.9245V39.8496C41.2001 39.3932 40.8315 39.0227 40.375 39.0227Z" fill="#161616" stroke="#161616" stroke-width="0.4"/>
<path d="M36.6251 39.9621C36.1686 39.9621 35.8 40.3325 35.8 40.7889V45.1776C35.8 45.6339 36.1686 46.0044 36.6251 46.0044C37.0815 46.0044 37.4501 45.6339 37.4501 45.1776V40.7889C37.4501 40.3327 37.0815 39.9621 36.6251 39.9621Z" fill="#161616" stroke="#161616" stroke-width="0.4"/>
<path d="M43.2998 39.535C43.2998 39.0786 43.6682 38.7082 44.1249 38.7082C44.5812 38.7082 44.9497 39.0786 44.9498 39.535L43.2998 39.535ZM43.2998 39.535C43.2998 40.1163 42.8273 40.5888 42.2499 40.5888M43.2998 39.535L42.2499 40.5888M42.2499 40.5888C41.6713 40.5888 41.1999 40.1164 41.1999 39.535M42.2499 40.5888L41.1999 39.535M41.1999 39.535C41.1999 39.0786 40.8313 38.7082 40.3749 38.7082M41.1999 39.535L40.3749 38.7082M40.3749 38.7082C39.9184 38.7082 39.55 39.0786 39.55 39.535M40.3749 38.7082L39.55 39.535M39.55 39.535C39.55 41.028 40.7596 42.243 42.25 42.243M39.55 39.535L42.25 42.243M42.25 42.243C43.7393 42.243 44.9501 41.0281 44.9498 39.535L42.25 42.243Z" fill="#161616" stroke="#161616" stroke-width="0.4"/>
<path d="M47.875 37.4562C47.4185 37.4562 47.0499 37.8266 47.0499 38.283V40.1637C47.0499 40.6202 47.4185 40.9905 47.875 40.9905C48.3314 40.9905 48.7 40.6201 48.6999 40.1637C48.6999 40.1637 48.6999 40.1637 48.6999 40.1636L48.6999 38.283C48.6999 37.8266 48.3315 37.4562 47.875 37.4562Z" fill="#161616" stroke="#161616" stroke-width="0.4"/>
<path d="M44.1252 38.7082C43.6686 38.7082 43.3001 39.0786 43.3001 39.535V42.6697C43.3001 43.126 43.6685 43.4965 44.1252 43.4965C44.5816 43.4965 44.9501 43.1257 44.9501 42.6696V39.535C44.9501 39.0786 44.5815 38.7082 44.1252 38.7082Z" fill="#161616" stroke="#161616" stroke-width="0.4"/>
<path d="M51.625 34.9465C51.1685 34.9465 50.7999 35.317 50.7999 35.7734V38.908C50.7999 39.3645 51.1685 39.7348 51.625 39.7348C52.0815 39.7348 52.4499 39.3644 52.4499 38.908V35.7734C52.4499 35.3171 52.0815 34.9465 51.625 34.9465Z" fill="#161616" stroke="#161616" stroke-width="0.4"/>
<path d="M18.7 16.9669V16.9668C18.7 15.4738 17.4899 14.259 15.9999 14.259C14.51 14.259 13.2999 15.4739 13.2999 16.9668C13.2999 17.4232 13.6684 17.7937 14.1249 17.7937C14.5814 17.7937 14.95 17.4232 14.95 16.9668C14.95 16.3855 15.4219 15.913 15.9999 15.913C16.5779 15.913 17.0499 16.3855 17.0499 16.9668C17.0499 17.4232 17.4184 17.7937 17.8749 17.7937C18.3315 17.7937 18.6998 17.4233 18.7 16.9669Z" fill="#161616" stroke="#161616" stroke-width="0.4"/>
<path d="M17.8752 12.3781C17.4187 12.3781 17.0501 12.7487 17.0501 13.2051V16.9666C17.0501 17.423 17.4187 17.7936 17.8752 17.7936C18.3317 17.7936 18.7001 17.4232 18.7001 16.9668V13.2051C18.7001 12.7488 18.3318 12.3781 17.8752 12.3781Z" fill="#161616" stroke="#161616" stroke-width="0.4"/>
<path d="M19.7502 10.4992C18.2604 10.4992 17.0501 11.7142 17.0501 13.207C17.0501 13.6635 17.4187 14.0339 17.8752 14.0339C18.3317 14.0339 18.7001 13.6634 18.7001 13.207C18.7001 12.6256 19.1722 12.153 19.7502 12.153C20.3282 12.153 20.8001 12.6257 20.8001 13.207C20.8001 13.6635 21.1688 14.0339 21.6252 14.0339C22.0816 14.0339 22.4502 13.6635 22.4502 13.207C22.4502 11.7142 21.2399 10.4992 19.7502 10.4992Z" fill="#161616" stroke="#161616" stroke-width="0.4"/>
<path d="M21.6251 8.61836C21.1686 8.61836 20.8 8.98891 20.8 9.44531V13.2067C20.8 13.6632 21.1686 14.0335 21.6251 14.0335C22.0815 14.0335 22.4501 13.6632 22.4501 13.2067V9.44531C22.4501 8.98891 22.0816 8.61836 21.6251 8.61836Z" fill="#161616" stroke="#161616" stroke-width="0.4"/>
<path d="M23.5001 6.7375C22.0103 6.7375 20.8 7.95228 20.8 9.44499C20.8 9.90137 21.1686 10.2719 21.6251 10.2719C22.0815 10.2719 22.4501 9.90137 22.4501 9.44499C22.4501 8.86365 22.9222 8.39117 23.5002 8.39117C24.0782 8.39117 24.5502 8.86376 24.5502 9.44499C24.5502 9.90131 24.9185 10.2719 25.3751 10.2719C25.8315 10.2719 26.2001 9.90156 26.2001 9.44499C26.2001 7.95228 24.9898 6.7375 23.5001 6.7375Z" fill="#161616" stroke="#161616" stroke-width="0.4"/>
<path d="M25.3752 8.61836C24.9186 8.61836 24.5502 8.98897 24.5502 9.44531V18.2218C24.5502 18.6781 24.9186 19.0488 25.3752 19.0488C25.8317 19.0488 26.2002 18.6782 26.2002 18.2218V9.44531C26.2002 8.98891 25.8317 8.61836 25.3752 8.61836Z" fill="#161616" stroke="#161616" stroke-width="0.4"/>
<path d="M29.9504 18.2205V18.2204C29.9504 16.7275 28.7402 15.5129 27.2503 15.5129C25.7604 15.5129 24.5502 16.7277 24.5502 18.2204C24.5502 18.6767 24.9186 19.0473 25.3751 19.0473C25.8316 19.0473 26.2002 18.6768 26.2002 18.2204C26.2002 17.6392 26.6721 17.1667 27.2501 17.1667C27.8282 17.1667 28.3001 17.6392 28.3001 18.2204C28.3001 18.6768 28.6687 19.0473 29.1252 19.0473C29.5816 19.0473 29.9502 18.6768 29.9504 18.2205Z" fill="#161616" stroke="#161616" stroke-width="0.4"/>
<path d="M31.0001 7.99141C29.5101 7.99141 28.3 9.2064 28.3 10.6993C28.3 11.1557 28.6685 11.5263 29.1251 11.5263C29.5816 11.5263 29.9501 11.1557 29.9501 10.6993C29.9501 10.118 30.4221 9.64542 31.0001 9.64542C31.5781 9.64542 32.05 10.118 32.05 10.6993C32.05 11.1557 32.4186 11.5263 32.8751 11.5263C33.3315 11.5263 33.7001 11.1559 33.7001 10.6993C33.7001 9.20636 32.4893 7.99141 31.0001 7.99141Z" fill="#161616" stroke="#161616" stroke-width="0.4"/>
<path d="M29.1251 9.87227C28.6686 9.87227 28.3 10.2428 28.3 10.6992V18.2222C28.3 18.6786 28.6686 19.0491 29.1251 19.0491C29.5816 19.0491 29.9501 18.6786 29.9501 18.2222V10.6992C29.9501 10.2428 29.5816 9.87227 29.1251 9.87227Z" fill="#161616" stroke="#161616" stroke-width="0.4"/>
<path d="M32.8751 9.87227C32.4186 9.87227 32.05 10.2428 32.05 10.6992V15.7145C32.05 16.171 32.4186 16.5413 32.8751 16.5413C33.3315 16.5413 33.7002 16.1708 33.7 15.7145C33.7 15.7145 33.7 15.7145 33.7 15.7144L33.7 10.6992C33.7 10.2429 33.3316 9.87227 32.8751 9.87227Z" fill="#161616" stroke="#161616" stroke-width="0.4"/>
<path d="M37.4502 15.7147V15.7146C37.4502 14.2217 36.2394 13.007 34.7502 13.007C33.2598 13.007 32.0501 14.2219 32.0501 15.7146C32.0501 16.1711 32.4188 16.5414 32.8752 16.5414C33.3317 16.5414 33.7001 16.171 33.7001 15.7146C33.7001 15.1333 34.1714 14.6609 34.75 14.6609C35.3275 14.6609 35.8 15.1335 35.8 15.7146C35.8 16.1711 36.1686 16.5414 36.625 16.5414C37.0815 16.5414 37.45 16.1709 37.4502 15.7147Z" fill="#161616" stroke="#161616" stroke-width="0.4"/>
<path d="M41.2002 4.42984V4.42975C41.2002 2.93667 39.9894 1.72187 38.5002 1.72187C37.0098 1.72187 35.8001 2.93689 35.8001 4.42975C35.8001 4.88616 36.1687 5.25676 36.6252 5.25676C37.0817 5.25676 37.4502 4.88616 37.4502 4.42975C37.4502 3.84832 37.9215 3.37589 38.5 3.37589C39.0775 3.37589 39.5501 3.84852 39.5501 4.42975C39.5501 4.8861 39.9185 5.25676 40.375 5.25676C40.8316 5.25676 41.2 4.88617 41.2002 4.42984Z" fill="#161616" stroke="#161616" stroke-width="0.4"/>
<path d="M36.6251 3.60273C36.1686 3.60273 35.8 3.9733 35.8 4.4297V15.7144C35.8 16.1708 36.1686 16.5412 36.6251 16.5412C37.0816 16.5412 37.4501 16.1706 37.4501 15.7142V4.4297C37.4501 3.9733 37.0816 3.60273 36.6251 3.60273Z" fill="#161616" stroke="#161616" stroke-width="0.4"/>
<path d="M40.375 3.60273C39.9185 3.60273 39.5501 3.97336 39.5501 4.4297V13.2066C39.5501 13.663 39.9185 14.0334 40.375 14.0334C40.8315 14.0334 41.2001 13.663 41.2001 13.2066V4.4297C41.2001 3.97329 40.8315 3.60273 40.375 3.60273Z" fill="#161616" stroke="#161616" stroke-width="0.4"/>
<path d="M44.9504 13.2072V13.207C44.9504 11.7141 43.7396 10.4992 42.2503 10.4992C40.7597 10.4992 39.5502 11.7142 39.5502 13.207C39.5502 13.6634 39.9186 14.0339 40.3751 14.0339C40.8316 14.0339 41.2002 13.6635 41.2002 13.207C41.2002 12.6255 41.6716 12.153 42.2501 12.153C42.8276 12.153 43.3001 12.6258 43.3001 13.207C43.3001 13.6635 43.6685 14.0339 44.1252 14.0339C44.5815 14.0339 44.95 13.6635 44.9504 13.2072Z" fill="#161616" stroke="#161616" stroke-width="0.4"/>
<path d="M44.1252 12.3781C43.6685 12.3781 43.3001 12.7487 43.3001 13.2051V18.8474C43.3001 19.3038 43.6685 19.6744 44.1252 19.6744C44.5815 19.6744 44.9501 19.304 44.9501 18.8475V13.2051C44.9501 12.7487 44.5816 12.3781 44.1252 12.3781Z" fill="#161616" stroke="#161616" stroke-width="0.4"/>
<path d="M48.7002 18.2205V18.2204C48.7002 16.7275 47.4894 15.5129 46.0002 15.5129C44.5096 15.5129 43.3001 16.7277 43.3001 18.2204C43.3001 18.6767 43.6685 19.0473 44.1252 19.0473C44.5815 19.0473 44.9501 18.6767 44.9501 18.2204C44.9501 17.6391 45.4214 17.1667 46 17.1667C46.5775 17.1667 47.05 17.6392 47.05 18.2204C47.05 18.6768 47.4186 19.0473 47.875 19.0473C48.3315 19.0473 48.7 18.6768 48.7002 18.2205Z" fill="#161616" stroke="#161616" stroke-width="0.4"/>
<path d="M47.875 17.3937C47.4184 17.3937 47.0499 17.7645 47.0499 18.221V18.8482C47.0499 19.3047 47.4184 19.6755 47.875 19.6755C48.3315 19.6755 48.7 19.3049 48.6999 18.8482C48.6999 18.8482 48.6999 18.8482 48.6999 18.8481L48.6999 18.221C48.6999 17.7646 48.3316 17.3937 47.875 17.3937Z" fill="#161616" stroke="#161616" stroke-width="0.4"/>
<path d="M52.4502 14.4609V14.4607C52.4502 12.9679 51.2394 11.7531 49.7502 11.7531C48.2596 11.7531 47.0501 12.968 47.0501 14.4607C47.0501 14.9172 47.4188 15.2875 47.8752 15.2875C48.3317 15.2875 48.7001 14.9171 48.7001 14.4607C48.7001 13.8794 49.1714 13.407 49.75 13.407C50.3275 13.407 50.8 13.8796 50.8 14.4607C50.8 14.9172 51.1686 15.2875 51.625 15.2875C52.0816 15.2875 52.4498 14.9171 52.4502 14.4609Z" fill="#161616" stroke="#161616" stroke-width="0.4"/>
<path d="M47.875 13.632C47.4185 13.632 47.0499 14.0026 47.0499 14.459V18.8473C47.0499 19.3037 47.4185 19.6742 47.875 19.6742C48.3314 19.6742 48.7 19.3039 48.6999 18.8473C48.6999 18.8472 48.6999 18.8472 48.6999 18.8472L48.6999 14.459C48.6999 14.0027 48.3315 13.632 47.875 13.632Z" fill="#161616" stroke="#161616" stroke-width="0.4"/>
<path d="M51.625 13.632C51.1685 13.632 50.7999 14.0026 50.7999 14.459V18.8473C50.7999 19.3037 51.1685 19.6742 51.625 19.6742C52.0815 19.6742 52.4499 19.3038 52.4499 18.8473V14.459C52.4499 14.0027 52.0815 13.632 51.625 13.632Z" fill="#161616" stroke="#161616" stroke-width="0.4"/>
<path d="M50.375 23.0363H7.8749C7.41828 23.0363 7.05 23.4071 7.05 23.8635C7.05 24.3199 7.41835 24.6905 7.8749 24.6905H50.375C50.8315 24.6905 51.1999 24.3199 51.1999 23.8635C51.1999 23.4071 50.8316 23.0363 50.375 23.0363Z" fill="#161616" stroke="#161616" stroke-width="0.4"/>
<path d="M1.62508 25.5441C1.1686 25.5441 0.8 25.9146 0.8 26.371V28.8785C0.8 29.3349 1.1686 29.7054 1.62508 29.7054C2.08162 29.7054 2.45 29.3348 2.45 28.8785V26.371C2.45 25.9147 2.08162 25.5441 1.62508 25.5441Z" fill="#161616" stroke="#161616" stroke-width="0.4"/>
</svg>
