<svg width="60" height="60" viewBox="0 0 60 60" fill="none" xmlns="http://www.w3.org/2000/svg">
<g clip-path="url(#clip0)">
<path d="M41.65 60.0046C43.0055 60.0009 44.1917 59.093 44.5491 57.7855L47.3136 47.4641L57.7833 44.6653C59.3786 44.2315 60.3231 42.5904 59.898 40.9933L54.4696 20.761L54.8993 19.1616C55.2878 17.6885 54.5099 16.1581 53.0908 15.6035L50.6466 6.47927C50.2091 4.88535 48.5721 3.93943 46.9727 4.35587L29.1178 9.14542L14.146 5.13155C13.5323 4.96314 12.8807 4.99838 12.2889 5.23177L8.54873 1.49797C7.28796 0.22576 5.44326 -0.274887 3.7125 0.185946C1.98174 0.646779 0.629905 1.99816 0.168614 3.72892C-0.292677 5.45967 0.207055 7.30484 1.47881 8.56561L8.29612 15.3829L0.128343 45.8739C-0.299083 47.4728 0.64638 49.1162 2.24351 49.5509L40.8716 59.9007C41.1251 59.9698 41.3869 60.005 41.65 60.0046ZM57.9636 41.5099C58.105 42.0403 57.7924 42.5858 57.2634 42.7318L47.9122 45.2309L53.4317 24.6261L57.9636 41.5099ZM47.4843 6.28936C47.742 6.21888 48.017 6.25458 48.2481 6.3882C48.4792 6.52137 48.6472 6.74195 48.7149 7.00006L50.8475 14.966L32.9798 10.1792L47.4843 6.28936ZM30.2894 30.3122L25.2422 28.6299L28.6071 25.2618L30.2894 30.3085V30.3122ZM26.2206 24.8261L17.7379 16.3426C17.3476 15.9522 16.7142 15.9522 16.3239 16.343C15.9335 16.7334 15.934 17.3667 16.3248 17.7571L24.8079 26.2384L23.3947 27.6534L9.25577 13.5144L10.6694 12.1008L13.4962 14.929C13.7492 15.1816 14.1172 15.2804 14.4627 15.1875C14.8077 15.0951 15.0773 14.8255 15.1697 14.4805C15.2622 14.1354 15.1638 13.767 14.9112 13.5144L12.0839 10.6872L13.4975 9.27264L27.6342 23.4116L26.2206 24.8261ZM6.42762 10.6872L10.6694 6.44541L12.083 7.85903L7.84215 12.1008L6.42762 10.6872ZM2.01469 5.03179C2.01469 3.81861 2.74553 2.72442 3.86626 2.26038C4.98746 1.79635 6.27752 2.05308 7.13511 2.91113L9.25577 5.03179L5.014 9.27356L2.89243 7.15199C2.32863 6.59093 2.01241 5.82761 2.01469 5.03179ZM2.06091 46.3988L9.93032 17.0171L22.6867 29.7736C22.7911 29.8756 22.9165 29.9529 23.0547 30.0005C23.0625 30.0005 23.0684 30.0115 23.0776 30.0143L29.6629 32.2136C29.8683 32.2814 30.0839 32.3148 30.3003 32.3139C30.677 32.3125 31.0454 32.204 31.362 32.0008L42.8586 35.088C42.9433 35.1113 43.0307 35.1232 43.1185 35.1228C43.6206 35.1228 44.0443 34.7507 44.1093 34.2533C44.1748 33.7558 43.8613 33.2872 43.3767 33.1577L32.28 30.1786C32.27 30.0088 32.2393 29.8408 32.1881 29.6784L29.9887 23.0926C29.9887 23.0835 29.9777 23.0775 29.9736 23.0684C29.926 22.9315 29.8487 22.8066 29.7475 22.7027L14.2961 7.24489L52.256 17.413C52.5128 17.4816 52.7315 17.6491 52.8642 17.8793C52.9969 18.109 53.0326 18.3822 52.964 18.639L42.6188 57.2625C42.5506 57.5192 42.3827 57.7384 42.1525 57.8711C41.9223 58.0038 41.6486 58.0395 41.3924 57.9704L2.76841 47.6243C2.51214 47.5557 2.29339 47.3882 2.16022 47.1585C2.02751 46.9283 1.99181 46.6551 2.06091 46.3988Z" fill="#161616"/>
<path d="M46.2259 23.5318C46.7275 23.5313 47.1513 23.1593 47.2167 22.6618C47.2817 22.1648 46.9682 21.6958 46.484 21.5662L32.265 17.7565C31.9163 17.6526 31.5392 17.7464 31.2797 18.0013C31.0203 18.2557 30.9196 18.6315 31.0166 18.9816C31.1136 19.3321 31.3937 19.6021 31.747 19.6868L45.9669 23.4975C46.0516 23.5203 46.1385 23.5318 46.2259 23.5318Z" fill="#161616"/>
<path d="M44.6723 29.3242C45.1739 29.3238 45.5977 28.9522 45.6631 28.4547C45.7285 27.9573 45.4151 27.4887 44.9304 27.3587L35.263 24.7727C34.9157 24.6738 34.5422 24.7695 34.2855 25.0239C34.0288 25.2779 33.9295 25.6509 34.0251 25.9991C34.1208 26.3474 34.3967 26.6169 34.7473 26.7039L44.4147 29.2904C44.4984 29.3128 44.5854 29.3242 44.6723 29.3242Z" fill="#161616"/>
<path d="M13.8242 31.4437L10.9251 30.6671C10.5773 30.5655 10.2016 30.6598 9.94345 30.9142C9.68535 31.1682 9.58467 31.5421 9.68077 31.8917C9.77688 32.2409 10.0542 32.5109 10.4061 32.5974L13.3052 33.3753C13.3903 33.3978 13.4773 33.4092 13.5651 33.4092C14.0672 33.4097 14.4914 33.0376 14.5568 32.5402C14.6223 32.0427 14.3088 31.5737 13.8242 31.4437Z" fill="#161616"/>
<path d="M42.5337 40.171C42.6765 39.6379 42.3598 39.0905 41.8272 38.9473L19.6166 32.9972C19.1013 32.8965 18.596 33.2123 18.4597 33.7193C18.3237 34.2264 18.6034 34.7527 19.0999 34.9234L41.3091 40.8739C41.3938 40.8973 41.4807 40.9087 41.5681 40.9087C42.0198 40.9092 42.4157 40.6067 42.5337 40.171Z" fill="#161616"/>
<path d="M12.2708 37.2377L9.37172 36.4607C8.83949 36.3211 8.29445 36.6378 8.15213 37.1691C8.00981 37.7008 8.3242 38.2477 8.85505 38.3923L11.7541 39.168C11.8383 39.1913 11.9253 39.2032 12.0132 39.2028C12.5147 39.2032 12.939 38.8312 13.0044 38.3337C13.0703 37.8363 12.7568 37.3672 12.2717 37.2377H12.2708Z" fill="#161616"/>
<path d="M40.2739 44.7408L18.0647 38.7894C17.716 38.686 17.3389 38.7798 17.0794 39.0342C16.8199 39.2891 16.7192 39.6644 16.8163 40.0149C16.9133 40.365 17.1933 40.635 17.5466 40.7201L39.7563 46.6711C39.841 46.6945 39.9284 46.7064 40.0162 46.7064C40.5178 46.7059 40.9415 46.3338 41.007 45.8364C41.072 45.339 40.7585 44.8704 40.2739 44.7408Z" fill="#161616"/>
</g>
<defs>
<clipPath id="clip0">
<rect width="60" height="60" fill="white"/>
</clipPath>
</defs>
</svg>
