<svg width="60" height="60" viewBox="0 0 60 60" fill="none" xmlns="http://www.w3.org/2000/svg">
<path d="M52.5 31.875H47.8125V30H50.625C50.7797 30 50.932 29.9617 51.0683 29.8886C51.2047 29.8154 51.3208 29.7096 51.4063 29.5807C52.6693 27.6783 53.6495 25.6026 54.3161 23.4185C54.6973 22.1521 54.9703 20.8556 55.132 19.543C55.8149 18.8715 56.2142 17.9638 56.2478 17.0067C56.2813 16.0496 55.9466 15.1161 55.3125 14.3985V14.0625C55.3125 10.8302 54.0285 7.73024 51.7429 5.44464C49.4573 3.15904 46.3573 1.875 43.125 1.875C39.8927 1.875 36.7927 3.15904 34.5071 5.44464C32.2215 7.73024 30.9375 10.8302 30.9375 14.0625V22.5C30.9375 22.7486 31.0363 22.9871 31.2121 23.1629C31.3879 23.3387 31.6264 23.4375 31.875 23.4375C31.9043 23.4375 31.9336 23.4361 31.9635 23.4333C32.2565 23.4055 32.5499 23.3682 32.8437 23.3216C33.246 24.6741 33.7717 25.9868 34.414 27.2432C33.723 26.604 32.8162 26.2493 31.875 26.25H5.625C4.63078 26.2511 3.6776 26.6466 2.97458 27.3496C2.27156 28.0526 1.87612 29.0058 1.875 30V46.875C1.87612 47.8692 2.27156 48.8224 2.97458 49.5254C3.6776 50.2284 4.63078 50.6239 5.625 50.625H11.9243L10.3405 56.9602C10.306 57.0984 10.3034 57.2426 10.3329 57.382C10.3625 57.5214 10.4234 57.6522 10.5111 57.7645C10.5988 57.8767 10.7109 57.9676 10.8389 58.0301C10.9669 58.0925 11.1075 58.125 11.25 58.125H26.25C26.4986 58.125 26.7371 58.0262 26.9129 57.8504C27.0887 57.6746 27.1875 57.4361 27.1875 57.1875V53.4375C27.1875 53.1889 27.0887 52.9504 26.9129 52.7746C26.7371 52.5988 26.4986 52.5 26.25 52.5H26.0023L26.3866 50.625H31.2282L29.1006 57.8605L30.8994 58.3895L32.8929 51.6101C33.1142 52.0416 33.3745 52.452 33.6705 52.8361L33.75 58.1391L35.625 58.1109L35.5406 52.4859C35.5373 52.2705 35.46 52.0628 35.3217 51.8977C34.8094 51.2909 34.4224 50.5886 34.1828 49.8315C34.6334 49.482 34.9979 49.0337 35.2479 48.5211C35.4979 48.0085 35.627 47.4453 35.625 46.875V33.75H36.7929L37.4422 36.0227C37.7933 37.2593 38.5381 38.3476 39.5637 39.1225C40.5892 39.8974 41.8395 40.3167 43.1249 40.3167C44.4103 40.3167 45.6607 39.8974 46.6862 39.1225C47.7118 38.3476 48.4566 37.2593 48.8077 36.0227L49.4571 33.7493H50.625V43.1243C50.625 43.3452 50.703 43.5589 50.8452 43.7279C51.6006 44.6207 52.0927 45.706 52.2666 46.8625C52.4404 48.0189 52.2891 49.201 51.8296 50.2764L48.9218 50.5995L46.575 49.4261L48.2992 46.7659C48.503 46.4558 48.6417 46.1075 48.707 45.7422C48.7722 45.3769 48.7627 45.0022 48.6789 44.6407C48.5932 44.2716 48.4334 43.9238 48.2093 43.6183C47.9852 43.3127 47.7014 43.0559 47.375 42.8633C46.7275 42.4788 45.9572 42.3571 45.2226 42.5234C44.4881 42.6897 43.8453 43.1313 43.4265 43.7572L36.7141 54.0886C36.6448 54.1952 36.5979 54.3147 36.5763 54.44C36.5547 54.5653 36.5588 54.6936 36.5884 54.8173L37.2071 57.4048C37.2641 57.6442 37.4131 57.8516 37.6217 57.9821C37.8304 58.1126 38.0821 58.1557 38.3223 58.102L39.6175 57.8142C39.705 57.9119 39.8121 57.9901 39.9319 58.0436C40.0516 58.0972 40.1813 58.1249 40.3125 58.125H53.4375C54.6803 58.1236 55.8717 57.6293 56.7505 56.7505C57.6293 55.8717 58.1236 54.6803 58.125 53.4375V37.5C58.1233 36.0087 57.5301 34.5789 56.4756 33.5244C55.4211 32.4699 53.9913 31.8767 52.5 31.875ZM38.4375 28.125H37.0717C36.3983 27.0624 35.8195 25.9427 35.3421 24.7788C36.1321 25.998 37.191 27.0199 38.4375 27.7661V28.125ZM39.8017 26.3809C38.1596 25.5238 36.8806 24.1048 36.1982 22.3828C38.2677 21.5333 40.1251 20.2391 41.6388 18.5919C43.1525 16.9446 44.2855 14.9847 44.9575 12.8509L45.9946 9.52699C46.9527 11.6781 48.5757 13.465 50.625 14.625V19.6875C50.6243 20.7144 50.4129 21.7303 50.0038 22.6722C49.5947 23.6142 48.9966 24.4621 48.2466 25.1636C47.4965 25.865 46.6105 26.4051 45.6434 26.7504C44.6762 27.0956 43.6485 27.2387 42.6238 27.1707C41.6387 27.1049 40.6778 26.836 39.8017 26.3809ZM54.375 16.875C54.3744 17.3721 54.1767 17.8487 53.8252 18.2002C53.4737 18.5517 52.9971 18.7494 52.5 18.75V15C52.9971 15.0006 53.4737 15.1983 53.8252 15.5498C54.1767 15.9013 54.3744 16.3779 54.375 16.875ZM52.5219 22.8735C51.9573 24.7235 51.1478 26.4896 50.115 28.125H47.8125V27.8036C49.1034 27.065 50.1985 26.0277 51.0059 24.7787C51.8134 23.5297 52.3096 22.1053 52.4531 20.625H52.5C52.6929 20.625 52.8855 20.6102 53.0761 20.5807C52.9342 21.3547 52.7492 22.1201 52.5219 22.8735ZM32.8125 14.0625C32.8088 11.3971 33.8375 8.83379 35.6827 6.91032C37.5279 4.98686 40.0463 3.85268 42.7096 3.7457C45.3729 3.63871 47.9741 4.56723 49.9677 6.33649C51.9612 8.10574 53.1922 10.5783 53.4023 13.2354C53.1072 13.1621 52.8041 13.1251 52.5 13.125H51.7951C49.7029 12.027 48.1195 10.1585 47.3795 7.91449L46.8264 6.26449C46.7634 6.0766 46.6425 5.91349 46.481 5.79861C46.3195 5.68372 46.1258 5.62295 45.9276 5.62503C45.7295 5.62712 45.5371 5.69194 45.378 5.8102C45.219 5.92846 45.1016 6.09406 45.0425 6.28324L43.1675 12.2921C42.4413 14.6157 41.092 16.6957 39.2663 18.306C37.4407 19.9164 35.2085 20.9955 32.8125 21.4261V14.0625ZM12.4507 56.25L15.732 43.125H21.438L19.7974 56.25H12.4507ZM25.3125 56.25H21.687L21.9213 54.375H25.3125V56.25ZM24.0884 52.5H22.1557L22.3901 50.625H24.4727L24.0884 52.5ZM33.75 46.875C33.7502 47.2291 33.6502 47.5759 33.4614 47.8755C33.2727 48.1751 33.003 48.4151 32.6836 48.5678C32.5599 48.6264 32.4297 48.6703 32.2957 48.6983C32.1579 48.7314 32.0167 48.7488 31.875 48.75H22.6245L23.4302 42.3038C23.4467 42.1719 23.435 42.038 23.3958 41.9109C23.3565 41.7839 23.2908 41.6667 23.2028 41.5671C23.1148 41.4674 23.0067 41.3876 22.8855 41.3329C22.7643 41.2783 22.6329 41.25 22.5 41.25H15C14.7909 41.25 14.5878 41.3199 14.4231 41.4486C14.2583 41.5773 14.1412 41.7573 14.0905 41.9602L12.393 48.75H5.625C5.1279 48.7494 4.65133 48.5517 4.29983 48.2002C3.94832 47.8487 3.75059 47.3721 3.75 46.875V30C3.75059 29.5029 3.94832 29.0263 4.29983 28.6748C4.65133 28.3233 5.1279 28.1256 5.625 28.125H31.875C32.3721 28.1256 32.8487 28.3233 33.2002 28.6748C33.5517 29.0263 33.7494 29.5029 33.75 30V46.875ZM35.625 31.875V30C35.6249 29.7347 35.5967 29.4702 35.5407 29.2109C35.6201 29.3351 35.7001 29.4588 35.7819 29.5818C35.8675 29.7104 35.9835 29.8159 36.1197 29.8889C36.2559 29.9618 36.408 30 36.5625 30H38.4375V31.875H35.625ZM47.0039 35.5123C46.766 36.3548 46.259 37.0965 45.5603 37.624C45.0367 38.0187 44.4249 38.28 43.7777 38.3853C43.1305 38.4906 42.4674 38.4367 41.8457 38.2284C41.2239 38.0201 40.6623 37.6635 40.2092 37.1895C39.7562 36.7155 39.4253 36.1383 39.2453 35.5078L38.7355 33.7238C39.1749 33.6527 39.5748 33.4278 39.8637 33.0892C40.1526 32.7505 40.3117 32.3201 40.3125 31.875V28.6186C41.0213 28.8504 41.7564 28.9925 42.5005 29.0416C42.7104 29.0555 42.9199 29.0625 43.1291 29.0625C44.0817 29.0629 45.0288 28.9178 45.9375 28.6321V31.875C45.9383 32.3202 46.0973 32.7506 46.3862 33.0893C46.6751 33.428 47.075 33.653 47.5145 33.724L47.0039 35.5123ZM52.5 42.7944V33.75C53.4942 33.7511 54.4474 34.1466 55.1504 34.8496C55.8534 35.5526 56.2489 36.5058 56.25 37.5V49.7859L53.8958 50.0475C54.2493 48.8139 54.3071 47.5143 54.0646 46.2542C53.8221 44.994 53.2861 43.8087 52.5 42.7944ZM44.9988 44.7791C45.1503 44.5573 45.3809 44.4018 45.6433 44.3447C45.9058 44.2876 46.1802 44.3331 46.4101 44.4718C46.5198 44.5354 46.6155 44.6205 46.6914 44.722C46.7673 44.8236 46.8218 44.9395 46.8516 45.0627C46.8779 45.1792 46.8804 45.2999 46.8588 45.4174C46.8372 45.5349 46.7919 45.6468 46.7258 45.7463L44.7598 48.7794L42.0472 49.322L44.9988 44.7791ZM38.5054 54.7734L39.375 53.4349V55.9479L38.8159 56.0721L38.5054 54.7734ZM53.4375 56.25H41.25V51.3936L44.8684 50.6699L48.3307 52.401C48.4923 52.4819 48.6738 52.5145 48.8535 52.4947L56.25 51.6724V53.4375C56.2492 54.1832 55.9526 54.8981 55.4253 55.4253C54.898 55.9526 54.1832 56.2492 53.4375 56.25Z" fill="#161616"/>
<path d="M45.9375 20.625H44.0625C44.0625 20.8736 43.9637 21.1121 43.7879 21.2879C43.6121 21.4637 43.3736 21.5625 43.125 21.5625C42.8764 21.5625 42.6379 21.4637 42.4621 21.2879C42.2863 21.1121 42.1875 20.8736 42.1875 20.625H40.3125C40.3125 21.3709 40.6088 22.0863 41.1363 22.6137C41.6637 23.1412 42.3791 23.4375 43.125 23.4375C43.8709 23.4375 44.5863 23.1412 45.1137 22.6137C45.6412 22.0863 45.9375 21.3709 45.9375 20.625Z" fill="#161616"/>
<path d="M47.3437 17.8125C47.6219 17.8125 47.8938 17.73 48.125 17.5755C48.3563 17.421 48.5365 17.2014 48.6429 16.9444C48.7494 16.6874 48.7772 16.4047 48.723 16.1319C48.6687 15.8591 48.5348 15.6086 48.3381 15.4119C48.1414 15.2152 47.8909 15.0813 47.6181 15.027C47.3453 14.9728 47.0626 15.0006 46.8056 15.107C46.5486 15.2135 46.329 15.3937 46.1745 15.625C46.02 15.8562 45.9375 16.1281 45.9375 16.4063C45.9379 16.7791 46.0862 17.1365 46.3498 17.4002C46.6135 17.6638 46.9709 17.8121 47.3437 17.8125Z" fill="#161616"/>
<path d="M9.375 30H5.625V31.875H9.375V30Z" fill="#161616"/>
<path d="M15 30H11.25V31.875H15V30Z" fill="#161616"/>
<path d="M20.625 30H16.875V31.875H20.625V30Z" fill="#161616"/>
<path d="M26.25 30H22.5V31.875H26.25V30Z" fill="#161616"/>
<path d="M31.875 30H28.125V31.875H31.875V30Z" fill="#161616"/>
</svg>
