<svg width="36" height="36" viewBox="0 0 36 36" fill="none" xmlns="http://www.w3.org/2000/svg">
<path d="M34.9519 6.39871C34.9497 6.39871 34.9475 6.39844 34.9453 6.39844H25.3828V5.34375C25.3828 3.59912 23.9634 2.17969 22.2188 2.17969H13.7812C12.0366 2.17969 10.6172 3.59912 10.6172 5.34375V6.39844H1.05469C0.467468 6.39844 0 6.87964 0 7.45312V30.6562C0 32.4009 1.41943 33.8203 3.16406 33.8203H32.8359C34.5806 33.8203 36 32.4009 36 30.6562V7.47537C36 7.474 36 7.47263 36 7.47125C35.9596 6.77856 35.5336 6.40256 34.9519 6.39871ZM12.7266 5.34375C12.7266 4.7623 13.1998 4.28906 13.7812 4.28906H22.2188C22.8002 4.28906 23.2734 4.7623 23.2734 5.34375V6.39844H12.7266V5.34375ZM33.4819 8.50781L30.2066 18.3334C30.063 18.7649 29.6609 19.0547 29.2063 19.0547H23.2734V18C23.2734 17.4174 22.8013 16.9453 22.2188 16.9453H13.7812C13.1987 16.9453 12.7266 17.4174 12.7266 18V19.0547H6.79367C6.33911 19.0547 5.93701 18.7649 5.79337 18.3334L2.51807 8.50781H33.4819ZM21.1641 19.0547V21.1641H14.8359V19.0547H21.1641ZM33.8906 30.6562C33.8906 31.2377 33.4174 31.7109 32.8359 31.7109H3.16406C2.58261 31.7109 2.10938 31.2377 2.10938 30.6562V13.9524L3.79221 19.0006C4.22342 20.2948 5.42972 21.1641 6.79367 21.1641H12.7266V22.2188C12.7266 22.8013 13.1987 23.2734 13.7812 23.2734H22.2188C22.8013 23.2734 23.2734 22.8013 23.2734 22.2188V21.1641H29.2063C30.5703 21.1641 31.7766 20.2948 32.2078 19.0006L33.8906 13.9524V30.6562Z" fill="#161616"/>
</svg>
