<svg width="80" height="82" viewBox="0 0 80 82" fill="none" xmlns="http://www.w3.org/2000/svg">
<path d="M56.6259 46.9516C56.2543 46.6865 55.7364 46.7785 55.4742 47.1532L22.9735 47.9913C27.7436 54.8034 34.6695 59.5599 39.8162 59.5599C44.9641 59.5599 51.8912 54.801 56.6626 47.989L56.8261 48.1041C56.8262 48.104 56.8263 48.1038 56.8264 48.1037C57.0894 47.7297 56.9985 47.2141 56.625 46.9509L56.5098 47.1144L56.6259 46.9516Z" fill="#161616" stroke="#161616" stroke-width="0.4"/>
<path d="M70.7825 63.1793C65.2929 61.1198 61.1193 59.3003 58.3726 57.7731C57.9764 57.5523 57.4715 57.6956 57.2493 58.0962L57.2492 58.0965C57.0286 58.4958 57.1719 58.9987 57.5714 59.2216L57.5717 59.2218C60.3974 60.7929 64.6499 62.6465 70.2044 64.7314L70.2046 64.7315C72.6095 65.6321 74.3473 66.4919 75.4879 67.6924C76.6178 68.8816 77.1804 70.4267 77.1804 72.747V79.4547H2.45209V72.7471C2.45209 70.4268 3.01466 68.8818 4.14459 67.6925C5.28517 66.4921 7.02298 65.6323 9.42788 64.7316C14.8942 62.6847 19.2644 60.7793 22.0619 59.2219L22.0624 59.2216C22.4602 58.9986 22.6039 58.4946 22.3829 58.0963L22.3826 58.0959C22.1596 57.6966 21.6569 57.5508 21.2584 57.7733C18.5424 59.2868 14.2529 61.1569 8.84989 63.1794L8.8498 63.1795C6.2764 64.1441 4.25885 65.1546 2.88755 66.6209C1.50733 68.0967 0.8 70.0135 0.8 72.747V80.2827C0.8 80.7397 1.16882 81.1108 1.62596 81.1108H78.0063C78.4635 81.1108 78.8326 80.7397 78.8324 80.2825V72.7468C78.8324 70.0134 78.1251 68.0965 76.7448 66.6207C75.3735 65.1544 73.3559 64.1439 70.7825 63.1793Z" fill="#161616" stroke="#161616" stroke-width="0.4"/>
<path d="M39.8541 65.6398H39.8407C39.3819 65.6398 39.0219 66.0141 39.0219 66.4684C39.0219 66.928 39.3994 67.2969 39.8541 67.2969C40.3097 67.2969 40.6802 66.9258 40.6802 66.4684C40.6802 66.011 40.3098 65.6398 39.8541 65.6398Z" fill="#161616" stroke="#161616" stroke-width="0.4"/>
<path d="M39.8541 70.6633H39.8407C39.3819 70.6633 39.0219 71.0374 39.0219 71.4918C39.0219 71.9515 39.3994 72.3205 39.8541 72.3205C40.3097 72.3205 40.6802 71.9492 40.6802 71.4918C40.6802 71.0343 40.3098 70.6633 39.8541 70.6633Z" fill="#161616" stroke="#161616" stroke-width="0.4"/>
<path d="M39.8541 75.6867H39.8407C39.3819 75.6867 39.0219 76.061 39.0219 76.5152C39.0219 76.9749 39.3995 77.3436 39.8541 77.3436C40.3096 77.3436 40.6802 76.9727 40.6802 76.5152C40.6802 76.0579 40.3098 75.6867 39.8541 75.6867Z" fill="#161616" stroke="#161616" stroke-width="0.4"/>
<path d="M55.4679 53.0812C55.0108 53.0812 54.6417 53.4521 54.6417 53.9091V56.4212C54.6417 56.8784 55.0108 57.2492 55.4679 57.2492C55.9249 57.2492 56.2939 56.8783 56.2939 56.4212V53.9091C56.2939 53.4523 55.9248 53.0812 55.4679 53.0812Z" fill="#161616" stroke="#161616" stroke-width="0.4"/>
<path d="M48.5341 64.7298L48.5343 64.7296L54.7949 55.9378L48.5341 64.7298ZM48.5341 64.7298C48.2702 65.1013 48.3552 65.6183 48.7262 65.884L48.7263 65.8841M48.5341 64.7298L48.7263 65.8841M48.7263 65.8841C48.8726 65.9887 49.0404 66.039 49.2072 66.039C49.4631 66.039 49.7183 65.9193 49.88 65.6928L49.8801 65.6926M48.7263 65.8841L49.8801 65.6926M49.8801 65.6926L56.1406 56.9005L56.1406 56.9005M49.8801 65.6926L56.1406 56.9005M56.1406 56.9005C56.405 56.5291 56.32 56.0118 55.9486 55.7462C55.5765 55.4796 55.06 55.5649 54.7951 55.9376L56.1406 56.9005Z" fill="#161616" stroke="#161616" stroke-width="0.4"/>
<path d="M42.0639 60.7028L42.0639 60.7028L42.0626 60.7022C41.6564 60.5021 41.1606 60.6628 40.9555 61.0729L40.9555 61.0729L40.9553 61.0734C40.7527 61.4812 40.9158 61.9795 41.3249 62.1839C41.325 62.1839 41.325 62.184 41.3251 62.184L48.8377 65.9519L48.8376 65.952L48.8397 65.9529C48.9565 66.0099 49.0816 66.0394 49.2074 66.0394C49.5094 66.0394 49.8013 65.8712 49.9461 65.5819L49.9463 65.5815C50.1494 65.1732 49.9856 64.6753 49.5769 64.4708L42.0639 60.7028Z" fill="#161616" stroke="#161616" stroke-width="0.4"/>
<path d="M24.1642 53.0812C23.7072 53.0812 23.3381 53.4521 23.3381 53.9091V56.4212C23.3381 56.8783 23.7071 57.2492 24.1642 57.2492C24.6213 57.2492 24.9902 56.8783 24.9902 56.4212V53.9091C24.9902 53.4523 24.6213 53.0812 24.1642 53.0812Z" fill="#161616" stroke="#161616" stroke-width="0.4"/>
<path d="M31.0982 64.7297L31.0981 64.7296L24.8373 55.9376L24.8371 55.9373C24.5711 55.5652 24.0574 55.4795 23.684 55.746L23.6839 55.7461C23.3123 56.0117 23.2277 56.529 23.4916 56.9004L23.4917 56.9005L29.7524 65.6926C29.914 65.9195 30.1693 66.039 30.4252 66.039C30.5917 66.039 30.7598 65.9885 30.9059 65.8842L30.9061 65.884C31.2773 65.6183 31.3623 65.1013 31.0982 64.7297Z" fill="#161616" stroke="#161616" stroke-width="0.4"/>
<path d="M38.6771 61.0745L38.6768 61.0739C38.4722 60.665 37.978 60.4999 37.5688 60.7036L37.5683 60.7039L30.0558 64.4719C30.0557 64.4719 30.0557 64.4719 30.0556 64.472C29.6464 64.6764 29.4835 65.1743 29.6859 65.5824L29.6863 65.5831C29.8312 65.8723 30.123 66.0405 30.4251 66.0405C30.5505 66.0405 30.6759 66.0111 30.7928 65.954L30.7928 65.954L30.7948 65.953L38.3073 62.185C38.7163 61.9807 38.8797 61.4826 38.6771 61.0745Z" fill="#161616" stroke="#161616" stroke-width="0.4"/>
<path d="M41.6944 63.1281C41.2372 63.1281 40.8681 63.4991 40.8681 63.9561V80.2834C40.8681 80.7404 41.2372 81.1114 41.6944 81.1114C42.1512 81.1114 42.5205 80.7404 42.5203 80.2832C42.5203 80.2832 42.5203 80.2831 42.5203 80.2831L42.5203 63.9561C42.5203 63.4992 42.1513 63.1281 41.6944 63.1281Z" fill="#161616" stroke="#161616" stroke-width="0.4"/>
<path d="M38.7641 80.2833V80.2832V63.9561C38.7641 63.4992 38.3951 63.1281 37.938 63.1281C37.4809 63.1281 37.1119 63.4992 37.1119 63.9561V80.2834C37.1119 80.7403 37.4809 81.1114 37.938 81.1114C38.3952 81.1114 38.7639 80.7402 38.7641 80.2833Z" fill="#161616" stroke="#161616" stroke-width="0.4"/>
<path d="M29.8965 77.2457L29.8965 77.2457C30.2189 77.5691 30.219 78.0926 29.8966 78.4159C29.7354 78.5778 29.5234 78.6589 29.3123 78.6589C29.1009 78.6589 28.8892 78.5776 28.728 78.4161L28.7279 78.416L16.2579 65.9104L16.2579 65.9104C15.9355 65.587 15.9354 65.0635 16.2579 64.7402L29.8965 77.2457ZM29.8965 77.2457L17.4265 64.7401M29.8965 77.2457L17.4265 64.7401M17.4265 64.7401C17.4265 64.7401 17.4265 64.7401 17.4265 64.7401C17.1038 64.4164 16.5806 64.4163 16.258 64.7401L17.4265 64.7401Z" fill="#161616" stroke="#161616" stroke-width="0.4"/>
<path d="M13.9515 77.2393L13.9514 77.2393L5.96675 69.2304C5.96673 69.2304 5.96671 69.2304 5.9667 69.2303C5.64401 68.9065 5.12084 68.9066 4.79808 69.2303C4.47575 69.5537 4.47581 70.0772 4.79804 70.4006L4.79808 70.4006L12.783 78.4098C12.9441 78.5714 13.1558 78.6526 13.3672 78.6526C13.5786 78.6526 13.7903 78.5714 13.9514 78.4098C14.2739 78.0863 14.2739 77.5629 13.9515 77.2393Z" fill="#161616" stroke="#161616" stroke-width="0.4"/>
<path d="M32.4058 67.074L32.4058 67.074C32.0831 66.7503 31.56 66.7503 31.2373 67.074C31.2373 67.074 31.2373 67.074 31.2373 67.074L21.1002 77.2392C20.7777 77.5625 20.7778 78.0861 21.1002 78.4095C21.2613 78.5711 21.4732 78.6524 21.6844 78.6524C21.896 78.6524 22.1075 78.5711 22.2687 78.4096L22.2688 78.4095L32.4057 68.2445C32.4057 68.2444 32.4058 68.2444 32.4058 68.2444C32.7283 67.9211 32.7282 67.3975 32.4058 67.074Z" fill="#161616" stroke="#161616" stroke-width="0.4"/>
<path d="M22.6356 60.8866C22.313 60.5628 21.7899 60.5628 21.4672 60.8866L5.1625 77.241C5.16249 77.241 5.16247 77.241 5.16246 77.241C4.83995 77.5644 4.84003 78.0879 5.16246 78.4113C5.32358 78.573 5.53547 78.6542 5.74669 78.6542C5.95809 78.6542 6.16981 78.5729 6.33092 78.4113L22.6355 62.057C22.9582 61.7338 22.9579 61.2098 22.6356 60.8866Z" fill="#161616" stroke="#161616" stroke-width="0.4"/>
<path d="M62.6559 64.7401C62.9786 64.4163 63.5017 64.4163 63.8243 64.7402C64.1465 65.0635 64.1469 65.5872 63.8242 65.9105L51.3544 78.4158C51.3544 78.4159 51.3543 78.4159 51.3543 78.416L51.3542 78.416L51.2126 78.2748C51.0905 78.3976 50.93 78.4589 50.77 78.4589C50.61 78.4589 50.4495 78.3974 50.3274 78.2748L62.6559 64.7401ZM62.6559 64.7401C62.6558 64.7401 62.6558 64.7401 62.6558 64.7401L50.1858 77.2456L62.6559 64.7401Z" fill="#161616" stroke="#161616" stroke-width="0.4"/>
<path d="M66.1307 77.2395L66.1307 77.2394L74.1158 69.2303M66.1307 77.2395L74.1158 69.2303M66.1307 77.2395C65.8086 77.5628 65.8086 78.0863 66.1306 78.4097L66.1308 78.4098M66.1307 77.2395L66.1308 78.4098M74.1158 69.2303L74.1158 69.2303L74.2574 69.3715L74.1158 69.2303ZM66.1308 78.4098C66.292 78.5714 66.5037 78.6526 66.7153 78.6526C66.9266 78.6526 67.1382 78.5713 67.2994 78.4098L67.2995 78.4098M66.1308 78.4098L67.2995 78.4098M67.2995 78.4098L75.2842 70.4007C75.2842 70.4007 75.2842 70.4007 75.2843 70.4006C75.6068 70.0773 75.6065 69.5536 75.2843 69.2303L67.2995 78.4098Z" fill="#161616" stroke="#161616" stroke-width="0.4"/>
<path d="M58.9821 77.2392L58.9821 77.2392L48.8451 67.074C48.8451 67.074 48.8451 67.074 48.8451 67.074C48.5224 66.7503 47.9994 66.7504 47.6767 67.0739C47.3541 67.3972 47.3542 67.921 47.6766 68.2444L47.6766 68.2444L57.8135 78.4094C57.9746 78.5712 58.1867 78.6524 58.3978 78.6524C58.6091 78.6524 58.8208 78.5711 58.982 78.4096L58.982 78.4096C59.3046 78.0862 59.3045 77.5627 58.9821 77.2392Z" fill="#161616" stroke="#161616" stroke-width="0.4"/>
<path d="M74.9196 77.2411L74.9196 77.241L58.615 60.8867C58.615 60.8866 58.6149 60.8866 58.6149 60.8866C58.2924 60.5626 57.7691 60.5631 57.4464 60.8865C57.1239 61.2098 57.1239 61.7336 57.4464 62.057L57.4464 62.057L73.7511 78.4113L73.7512 78.4114C73.9124 78.5729 74.124 78.6542 74.3353 78.6542C74.5469 78.6542 74.7586 78.573 74.9197 78.4112C75.2421 78.0879 75.2419 77.5646 74.9196 77.2411Z" fill="#161616" stroke="#161616" stroke-width="0.4"/>
<path d="M18.9148 32.897C19.1764 32.9748 19.3574 33.2128 19.3635 33.4863C19.3684 33.7463 19.5494 39.8538 23.7448 39.8538C24.2192 39.8538 24.7391 39.7764 25.2892 39.6251M18.9148 32.897L25.2892 39.6251M18.9148 32.897C18.652 32.8192 18.3719 32.9209 18.2191 33.1466L18.9148 32.897ZM25.2892 39.6251L25.2361 39.4322C25.2361 39.4322 25.236 39.4323 25.236 39.4323L25.2892 39.6251ZM38.9168 41.1001L38.9169 41.1C39.1484 40.2141 38.8371 39.3201 37.9126 38.4275L37.9126 38.4275C37.2879 37.8243 36.456 37.6788 35.3282 37.8583C34.1945 38.0387 32.8068 38.5407 31.1134 39.1814L31.1133 39.1814L31.0844 39.1924C29.512 39.7869 27.7244 40.4628 25.6751 41.0282L25.6751 41.0282C25.0029 41.2136 24.3526 41.3095 23.7448 41.3095C21.9902 41.3096 20.7172 40.5243 19.8222 39.412C19.084 38.4946 18.6027 37.3559 18.3079 36.2501C17.8989 37.6552 18.0349 39.0022 18.7139 40.2856L18.714 40.2858C19.6249 42.0112 21.3849 43.4057 23.4381 44.3704C25.489 45.3341 27.8097 45.8577 29.8123 45.8584L38.9168 41.1001ZM38.9168 41.1001C38.6921 41.9632 37.9479 42.838 36.7573 43.6279C35.5715 44.4146 33.967 45.1005 32.0693 45.5951L32.0693 45.5951M38.9168 41.1001L32.0693 45.5951M32.0693 45.5951C31.4026 45.7691 30.6435 45.8584 29.8124 45.8584L32.0693 45.5951ZM17.2536 41.0608C18.3297 43.0981 20.3562 44.7097 22.6573 45.8107C24.9602 46.9126 27.5602 47.5139 29.8111 47.5146H29.8112H29.8112H29.8112H29.8112H29.8113H29.8113H29.8113H29.8113H29.8113H29.8113H29.8113H29.8113H29.8113H29.8114H29.8114H29.8114H29.8114H29.8114H29.8114H29.8114H29.8114H29.8115H29.8115H29.8115H29.8115H29.8115H29.8115H29.8115H29.8115H29.8115H29.8115H29.8116H29.8116H29.8116H29.8116H29.8116H29.8116H29.8116H29.8116H29.8116H29.8116H29.8116H29.8117H29.8117H29.8117H29.8117H29.8117H29.8117H29.8117H29.8117H29.8117H29.8117H29.8117H29.8118H29.8118H29.8118H29.8118H29.8118H29.8118H29.8118H29.8118H29.8118H29.8118H29.8118H29.8118H29.8119H29.8119H29.8119H29.8119H29.8119H29.8119H29.8119H29.8119H29.8119H29.8119H29.8119H29.812H29.812H29.812H29.812H29.812H29.812H29.812H29.812H29.812H29.812H29.812H29.812H29.8121H29.8121H29.8121H29.8121H29.8121H29.8121H29.8121H29.8121H29.8121H29.8121H29.8121H29.8121H29.8122H29.8122H29.8122H29.8122H29.8122H29.8122H29.8122H29.8122H29.8122H29.8122H29.8122H29.8122H29.8123H29.8123H29.8123H29.8123H29.8123H29.8123H29.8123C30.7783 47.5146 31.6769 47.4074 32.4839 47.1993L32.4845 47.1992C34.697 46.6223 36.5382 45.823 37.9086 44.861C39.278 43.8998 40.1905 42.7663 40.5159 41.519L40.5159 41.5189C40.7914 40.4587 40.7458 38.863 39.0585 37.2349L17.2536 41.0608Z" fill="#161616" stroke="#161616" stroke-width="0.4"/>
<path d="M61.5812 33.0343L61.5811 33.0342C61.3794 32.7365 61.0086 32.603 60.6632 32.7049L60.6628 32.705C60.3173 32.8077 60.0792 33.1218 60.0712 33.4816L60.0711 33.4823C60.0688 33.6053 60.0228 35.1707 59.4638 36.6986C58.9037 38.2296 57.8595 39.6536 55.8886 39.6536C55.4342 39.6536 54.9326 39.5796 54.3963 39.4321C52.4119 38.8842 50.6591 38.2212 49.1057 37.633L49.1057 37.6329L49.0648 37.6175C46.8552 36.7816 45.0579 36.1017 43.4772 36.1017C42.3199 36.1017 41.3642 36.4714 40.5735 37.2347C38.8864 38.8627 38.8408 40.4596 39.1176 41.52L39.1176 41.5201C39.4435 42.7666 40.3561 43.8998 41.7253 44.8609C43.0956 45.8226 44.9364 46.622 47.149 47.1989L47.1495 47.199C47.9566 47.4073 48.8552 47.5146 49.8211 47.5146C52.0721 47.5146 54.672 46.9131 56.9751 45.8112C59.2763 44.7101 61.303 43.0986 62.3796 41.0619L62.2028 40.9685L62.3796 41.0619C62.8423 40.1865 63.228 39.0418 63.2031 37.6806C63.1783 36.3179 62.7422 34.7515 61.5812 33.0343ZM60.9197 40.2862L60.9196 40.2863C59.8182 42.3706 57.4722 43.958 54.8817 44.8949C52.292 45.8316 49.5063 46.1005 47.5639 45.5951C45.6664 45.1011 44.0621 44.4152 42.8765 43.6285C41.6861 42.8385 40.9418 41.9635 40.7164 41.1006L40.5229 41.1511L40.7164 41.1006C40.4849 40.2141 40.7951 39.3197 41.7194 38.4275C42.1922 37.9717 42.7434 37.7576 43.4772 37.7576C44.1063 37.7576 44.8325 37.9095 45.6749 38.1664C46.5164 38.4231 47.4596 38.7798 48.5228 39.1821L48.5383 39.188C50.1126 39.7838 51.9044 40.4619 53.9571 41.0282C54.6307 41.2143 55.2796 41.3096 55.8886 41.3096C57.6439 41.3096 58.9172 40.5245 59.8124 39.4122C60.5507 38.495 61.032 37.3565 61.3267 36.2507C61.7355 37.6558 61.5988 39.0027 60.9197 40.2862Z" fill="#161616" stroke="#161616" stroke-width="0.4"/>
<path d="M33.1721 3.12748L33.1721 3.12749C33.0911 3.15276 33.0075 3.16472 32.9268 3.16472C32.5751 3.16472 32.2477 2.93771 32.1378 2.58219M33.1721 3.12748L32.6813 1.54567C32.2456 1.68164 32.0025 2.146 32.1378 2.58219M33.1721 3.12748C37.4522 1.79053 42.1699 1.78927 46.4549 3.125L46.4567 3.12552M33.1721 3.12748L46.4567 3.12552M32.1378 2.58219C32.1378 2.58214 32.1378 2.58209 32.1378 2.58203L32.3289 2.523L32.1378 2.5823C32.1378 2.58226 32.1378 2.58223 32.1378 2.58219ZM47.4891 2.57978C47.6245 2.14366 47.3816 1.67892 46.9455 1.54311C42.3398 0.108542 37.2799 0.109786 32.6813 1.54566L47.4891 2.57978ZM47.4891 2.57978C47.3538 3.01611 46.896 3.25816 46.4567 3.12552M47.4891 2.57978L46.4567 3.12552" fill="#161616" stroke="#161616" stroke-width="0.4"/>
<path d="M32.9294 1.50703C32.4723 1.50703 32.1035 1.87814 32.1035 2.33506V11.2053C32.1035 11.6622 32.4723 12.0331 32.9294 12.0331C33.3865 12.0331 33.7555 11.6621 33.7555 11.2053V2.33506C33.7555 1.87807 33.3865 1.50703 32.9294 1.50703Z" fill="#161616" stroke="#161616" stroke-width="0.4"/>
<path d="M46.7029 1.50508C46.2455 1.50508 45.8769 1.8762 45.8769 2.33309V11.2054C45.8769 11.6624 46.2456 12.0333 46.7029 12.0333C47.1597 12.0333 47.529 11.6623 47.5289 11.2054C47.5289 11.2054 47.5289 11.2053 47.5289 11.2053L47.5289 2.33309C47.5289 1.87632 47.1599 1.50508 46.7029 1.50508Z" fill="#161616" stroke="#161616" stroke-width="0.4"/>
<path d="M64.2327 25.4484H15.3994C14.9421 25.4484 14.5733 25.82 14.5733 26.2772C14.5733 26.7344 14.9422 27.1058 15.3994 27.1058H64.2327C64.6901 27.1058 65.059 26.7344 65.059 26.2772C65.059 25.82 64.6902 25.4484 64.2327 25.4484Z" fill="#161616" stroke="#161616" stroke-width="0.4"/>
<path d="M64.2327 27.9621H15.3994C14.9424 27.9621 14.5733 28.3331 14.5733 28.7901C14.5733 29.2472 14.9424 29.618 15.3994 29.618H64.2327C64.6899 29.618 65.059 29.2472 65.059 28.7901C65.059 28.3331 64.6899 27.9621 64.2327 27.9621Z" fill="#161616" stroke="#161616" stroke-width="0.4"/>
<path d="M64.2326 25.4484C63.7757 25.4484 63.4067 25.8195 63.4067 26.2765V28.7886C63.4067 29.2456 63.7757 29.6165 64.2326 29.6165C64.6898 29.6165 65.0589 29.2457 65.0589 28.7886V26.2765C65.0589 25.8195 64.6898 25.4484 64.2326 25.4484Z" fill="#161616" stroke="#161616" stroke-width="0.4"/>
<path d="M15.3994 25.4484C14.9424 25.4484 14.5733 25.8195 14.5733 26.2765V28.7886C14.5733 29.2457 14.9424 29.6165 15.3994 29.6165C15.8565 29.6165 16.2256 29.2457 16.2256 28.7886V26.2765C16.2256 25.8195 15.8565 25.4484 15.3994 25.4484Z" fill="#161616" stroke="#161616" stroke-width="0.4"/>
<path d="M49.5659 5.03986L49.5659 5.03986C56.8491 8.51203 61.7947 15.6602 62.4719 23.6974C62.5105 24.1515 62.1748 24.5525 61.72 24.5915C61.7193 24.5916 61.7186 24.5916 61.7179 24.5917L61.7013 24.3924C61.6831 24.3943 61.6664 24.3949 61.648 24.3949C61.3263 24.3949 61.0523 24.1478 61.0254 23.8197L49.5659 5.03986ZM49.5659 5.03986L49.5654 5.03965C49.1559 4.84568 48.6608 5.01812 48.465 5.43214C48.2687 5.84514 48.4441 6.3388 48.8555 6.53537L48.8557 6.53545C55.6098 9.75517 60.1974 16.385 60.826 23.8363L49.5659 5.03986Z" fill="#161616" stroke="#161616" stroke-width="0.4"/>
<path d="M17.9306 24.3892C17.9477 24.3911 17.966 24.3917 17.9843 24.3917C18.3059 24.3917 18.5786 24.1446 18.6067 23.8171C19.2438 16.2942 23.8757 9.60163 30.6941 6.35124L30.156 5.21668C22.9378 8.65839 18.0332 15.7446 17.3595 23.7104C17.3302 24.0562 17.5858 24.3597 17.9306 24.3892ZM17.9306 24.3892L17.9086 24.588C17.9095 24.5881 17.9104 24.5882 17.9113 24.5883M17.9306 24.3892L17.9135 24.5885C17.9127 24.5884 17.912 24.5884 17.9113 24.5883M17.9113 24.5883C17.9374 24.591 17.9627 24.5917 17.9843 24.5917C18.4098 24.5917 18.769 24.2651 18.806 23.8342L18.806 23.834C19.4371 16.3819 24.0258 9.75162 30.7801 6.53177L30.7804 6.53166C31.1917 6.33491 31.3672 5.84113 31.1705 5.42813C30.975 5.01527 30.4801 4.84102 30.0701 5.03608L30.0699 5.03615C22.7877 8.50842 17.8399 15.6569 17.1602 23.6935C17.1217 24.1483 17.4574 24.5482 17.9113 24.5883Z" fill="#161616" stroke="#161616" stroke-width="0.4"/>
</svg>
