<svg width="82" height="78" viewBox="0 0 82 78" fill="none" xmlns="http://www.w3.org/2000/svg">
<path d="M45.4116 73.9117H45.3994C44.9983 73.9117 44.6817 74.2387 44.6817 74.6388C44.6817 75.0414 45.0129 75.3659 45.4116 75.3659C45.8139 75.3659 46.1365 75.0401 46.1365 74.6388C46.1365 74.2374 45.8139 73.9117 45.4116 73.9117Z" fill="#161616" stroke="#161616" stroke-width="0.2"/>
<path d="M77.25 6.73359C76.7935 6.73359 76.4251 7.104 76.4251 7.5604C76.4251 8.01673 76.7935 8.38737 77.25 8.38737C78.5183 8.38737 79.5501 9.42184 79.5501 10.6951C79.5501 11.9683 78.5183 13.0028 77.25 13.0028C76.7935 13.0028 76.4251 13.3734 76.4251 13.8297C76.4251 14.2861 76.7935 14.6565 77.25 14.6565C79.429 14.6565 81.2 12.8792 81.2 10.6951C81.2 8.51095 79.429 6.73359 77.25 6.73359Z" fill="#161616" stroke="#161616" stroke-width="0.4"/>
<path d="M80.375 9.86836C79.9185 9.86836 79.5501 10.239 79.5501 10.6953V60.848C79.5501 61.3043 79.9185 61.675 80.375 61.675C80.8316 61.675 81.1999 61.3041 81.1999 60.8479V10.6953C81.1999 10.239 80.8316 9.86836 80.375 9.86836Z" fill="#161616" stroke="#161616" stroke-width="0.4"/>
<path d="M77.2499 13.0031H72.8751C72.4183 13.0031 72.05 13.3738 72.05 13.8302C72.05 14.2866 72.4184 14.657 72.8751 14.657H77.2499C77.7064 14.657 78.075 14.2866 78.075 13.8302C78.075 13.3737 77.7065 13.0031 77.2499 13.0031Z" fill="#161616" stroke="#161616" stroke-width="0.4"/>
<path d="M77.25 6.73359H4.75005C4.29344 6.73359 3.925 7.1044 3.925 7.56102C3.925 8.01757 4.29338 8.3886 4.75005 8.3886H77.25C77.7067 8.3886 78.0751 8.01757 78.0751 7.56102C78.0751 7.1044 77.7067 6.73359 77.25 6.73359Z" fill="#161616" stroke="#161616" stroke-width="0.4"/>
<path d="M77.2499 63.1555H72.8751C72.4182 63.1555 72.05 63.5264 72.05 63.9829C72.05 64.4395 72.4183 64.8102 72.8751 64.8102H77.2499C77.7065 64.8102 78.075 64.4395 78.075 63.9829C78.075 63.5264 77.7066 63.1555 77.2499 63.1555Z" fill="#161616" stroke="#161616" stroke-width="0.4"/>
<path d="M70.3752 56.8859H4.75005C4.29357 56.8859 3.925 57.2565 3.925 57.7128C3.925 58.1694 4.29357 58.5398 4.75005 58.5398H70.3752C70.8316 58.5398 71.2001 58.1694 71.2001 57.7128C71.2001 57.2565 70.8316 56.8859 70.3752 56.8859Z" fill="#161616" stroke="#161616" stroke-width="0.4"/>
<path d="M79.5501 60.8475C79.5501 60.3911 79.9185 60.0207 80.375 60.0207C80.8315 60.0207 81.1999 60.3911 81.1999 60.8475L79.5501 60.8475ZM79.5501 60.8475C79.5501 62.1214 78.5183 63.1552 77.25 63.1552M79.5501 60.8475L77.25 63.1552M77.25 63.1552C76.7935 63.1552 76.4251 63.5259 76.4251 63.9822M77.25 63.1552L76.4251 63.9822M76.4251 63.9822C76.4251 64.4386 76.7935 64.809 77.25 64.809M76.4251 63.9822L77.25 64.809M77.25 64.809C79.429 64.809 81.2 63.0317 81.1999 60.8475L77.25 64.809Z" fill="#161616" stroke="#161616" stroke-width="0.4"/>
<path d="M5.57506 57.7124V57.7123C5.57506 57.2561 5.20645 56.8856 4.75001 56.8856C3.48213 56.8856 2.44995 55.8516 2.44995 54.5781C2.44995 54.1217 2.08137 53.7512 1.6249 53.7512C1.16835 53.7512 0.8 54.1218 0.8 54.5781C0.8 56.762 2.57107 58.5392 4.75001 58.5392C5.20654 58.5392 5.57485 58.1688 5.57506 57.7124Z" fill="#161616" stroke="#161616" stroke-width="0.4"/>
<path d="M72.8752 13.0031C72.4185 13.0031 72.0501 13.3737 72.0501 13.8301V63.9826C72.0501 64.439 72.4186 64.8094 72.8752 64.8094C73.3315 64.8094 73.7001 64.439 73.7001 63.9826V13.8301C73.7001 13.3737 73.3315 13.0031 72.8752 13.0031Z" fill="#161616" stroke="#161616" stroke-width="0.4"/>
<path d="M4.75001 6.73301C3.48217 6.73301 2.44995 5.6984 2.44995 4.4254C2.44995 3.15241 3.48232 2.11779 4.75001 2.11779C5.20643 2.11779 5.57506 1.74746 5.57506 1.291C5.57506 0.834611 5.20649 0.464062 4.75001 0.464062C2.57105 0.464062 0.8 2.24151 0.8 4.42555C0.8 6.60961 2.57106 8.38689 4.75001 8.38689C5.20656 8.38689 5.57506 8.01612 5.57506 7.55979C5.57506 7.10333 5.20643 6.73301 4.75001 6.73301Z" fill="#161616" stroke="#161616" stroke-width="0.4"/>
<path d="M9.1251 0.464062H4.75005C4.2933 0.464062 3.925 0.835273 3.925 1.29189C3.925 1.74857 4.29337 2.11956 4.75005 2.11956H9.12495C9.58163 2.11956 9.95 1.74857 9.95 1.29189C9.95 0.835339 9.58192 0.464062 9.1251 0.464062Z" fill="#161616" stroke="#161616" stroke-width="0.4"/>
<path d="M9.1248 0.464062C8.66832 0.464062 8.29976 0.834617 8.29976 1.29101V5.05237C8.29976 5.50877 8.66832 5.87932 9.1248 5.87932C9.58124 5.87932 9.94985 5.50881 9.94969 5.05237C9.94969 5.05234 9.94969 5.05231 9.94969 5.05228L9.94969 1.29101C9.94969 0.834682 9.58136 0.464062 9.1248 0.464062Z" fill="#161616" stroke="#161616" stroke-width="0.4"/>
<path d="M1.62489 3.59883C1.16834 3.59883 0.8 3.96946 0.8 4.42579V54.5782C0.8 55.0345 1.1684 55.405 1.62489 55.405C2.08132 55.405 2.44994 55.0346 2.44994 54.5782V4.42579C2.44994 3.96939 2.08138 3.59883 1.62489 3.59883Z" fill="#161616" stroke="#161616" stroke-width="0.4"/>
<path d="M16.2 22.6069V22.6068V16.3379C16.2 15.8815 15.8314 15.5109 15.3749 15.5109C14.9184 15.5109 14.5499 15.8815 14.5499 16.3379V22.6068C14.5499 23.0632 14.9184 23.4338 15.3749 23.4338C15.8315 23.4338 16.1998 23.0631 16.2 22.6069Z" fill="#161616" stroke="#161616" stroke-width="0.4"/>
<path d="M16.2 31.3822V31.3821V26.367C16.2 25.9106 15.8314 25.5402 15.3749 25.5402C14.9185 25.5402 14.5499 25.9106 14.5499 26.367V31.3821C14.5499 31.8386 14.9185 32.2089 15.3749 32.2089C15.8315 32.2089 16.1998 31.8383 16.2 31.3822Z" fill="#161616" stroke="#161616" stroke-width="0.4"/>
<path d="M11.6249 30.5559C11.1684 30.5559 10.7999 30.9264 10.7999 31.3828V37.6513C10.7999 38.1077 11.1684 38.4782 11.6249 38.4782C12.0815 38.4782 12.4498 38.1076 12.4498 37.6513V31.3828C12.4498 30.9265 12.0815 30.5559 11.6249 30.5559Z" fill="#161616" stroke="#161616" stroke-width="0.4"/>
<path d="M11.6249 40.5852C11.1685 40.5852 10.7999 40.9557 10.7999 41.4119V46.4272C10.7999 46.8836 11.1685 47.254 11.6249 47.254C12.0814 47.254 12.4498 46.8836 12.4498 46.4272V41.4119C12.4498 40.9557 12.0814 40.5852 11.6249 40.5852Z" fill="#161616" stroke="#161616" stroke-width="0.4"/>
<path d="M26.625 15.5109H15.453C14.9961 15.5109 14.6281 15.8825 14.6281 16.3392C14.6281 16.7959 14.9961 17.1673 15.453 17.1673H26.625C27.0819 17.1673 27.4499 16.7959 27.4499 16.3392C27.4499 15.8825 27.0819 15.5109 26.625 15.5109Z" fill="#161616" stroke="#161616" stroke-width="0.4"/>
<path d="M31.6249 30.5559H11.6249C11.1682 30.5559 10.7999 30.9269 10.7999 31.3835C10.7999 31.8401 11.1683 32.211 11.6249 32.211H31.6249C32.0816 32.211 32.45 31.8401 32.45 31.3835C32.45 30.9269 32.0816 30.5559 31.6249 30.5559Z" fill="#161616" stroke="#161616" stroke-width="0.4"/>
<path d="M30.375 45.6008H11.6249C11.1683 45.6008 10.7999 45.9718 10.7999 46.4284C10.7999 46.885 11.1683 47.2558 11.6249 47.2558H30.375C30.8316 47.2558 31.2 46.885 31.2 46.4284C31.2 45.9718 30.8317 45.6008 30.375 45.6008Z" fill="#161616" stroke="#161616" stroke-width="0.4"/>
<path d="M31.2001 31.3819V31.3818V30.1291C31.2001 29.6726 30.8316 29.302 30.3751 29.302C29.9185 29.302 29.55 29.6726 29.55 30.1291V31.3818C29.55 31.8383 29.9186 32.2088 30.3751 32.2088C30.8316 32.2088 31.1999 31.8383 31.2001 31.3819Z" fill="#161616" stroke="#161616" stroke-width="0.4"/>
<path d="M47.875 29.302C47.4184 29.302 47.0501 29.6727 47.0501 30.1291V31.3818C47.0501 31.8383 47.4185 32.2088 47.875 32.2088C48.3314 32.2088 48.7001 31.8384 48.6999 31.3818C48.6999 31.3818 48.6999 31.3818 48.6999 31.3818L48.6999 30.1291C48.6999 29.6727 48.3316 29.302 47.875 29.302Z" fill="#161616" stroke="#161616" stroke-width="0.4"/>
<path d="M31.2001 26.3685V26.3684V16.3379C31.2001 15.8815 30.8316 15.5109 30.3751 15.5109C29.9186 15.5109 29.55 15.8815 29.55 16.3379V26.3684C29.55 26.8248 29.9186 27.1954 30.3751 27.1954C30.8317 27.1954 31.1999 26.8245 31.2001 26.3685Z" fill="#161616" stroke="#161616" stroke-width="0.4"/>
<path d="M39.1251 15.5109C38.6686 15.5109 38.3 15.8815 38.3 16.3379V26.3684C38.3 26.8248 38.6686 27.1954 39.1251 27.1954C39.5816 27.1954 39.9501 26.8246 39.9501 26.3684V16.3379C39.9501 15.8815 39.5816 15.5109 39.1251 15.5109Z" fill="#161616" stroke="#161616" stroke-width="0.4"/>
<path d="M41.6252 25.5402H36.625C36.1683 25.5402 35.8001 25.9112 35.8001 26.3678C35.8001 26.8243 36.1682 27.1955 36.625 27.1955H41.6252C42.0819 27.1955 42.4501 26.8243 42.4501 26.3678C42.4501 25.9112 42.0819 25.5402 41.6252 25.5402Z" fill="#161616" stroke="#161616" stroke-width="0.4"/>
<path d="M32.875 25.5402H30.3749C29.9183 25.5402 29.5499 25.9111 29.5499 26.3678C29.5499 26.8244 29.9182 27.1955 30.3749 27.1955H32.875C33.3317 27.1955 33.7001 26.8244 33.7001 26.3678C33.7001 25.9111 33.3317 25.5402 32.875 25.5402Z" fill="#161616" stroke="#161616" stroke-width="0.4"/>
<path d="M47.875 25.5402H45.3749C44.9183 25.5402 44.5499 25.9111 44.5499 26.3678C44.5499 26.8244 44.9182 27.1955 45.3749 27.1955H47.875C48.3318 27.1955 48.6999 26.8243 48.6999 26.3678C48.6999 25.9112 48.3317 25.5402 47.875 25.5402Z" fill="#161616" stroke="#161616" stroke-width="0.4"/>
<path d="M61.6251 15.5109H30.3751C29.9182 15.5109 29.55 15.8825 29.55 16.3392C29.55 16.796 29.9182 17.1673 30.3751 17.1673H61.6251C62.082 17.1673 62.45 16.7959 62.45 16.3392C62.45 15.8825 62.082 15.5109 61.6251 15.5109Z" fill="#161616" stroke="#161616" stroke-width="0.4"/>
<path d="M47.875 15.5109C47.4185 15.5109 47.0501 15.8816 47.0501 16.3379V26.3684C47.0501 26.8247 47.4185 27.1954 47.875 27.1954C48.3315 27.1954 48.7001 26.8247 48.6999 26.3684C48.6999 26.3684 48.6999 26.3683 48.6999 26.3683L48.6999 16.3379C48.6999 15.8816 48.3316 15.5109 47.875 15.5109Z" fill="#161616" stroke="#161616" stroke-width="0.4"/>
<path d="M61.625 15.509C61.1686 15.509 60.8 15.8795 60.8 16.3359V50.1888C60.8 50.6452 61.1686 51.0156 61.625 51.0156C62.0815 51.0156 62.4499 50.6451 62.4499 50.1888V16.3359C62.4499 15.8796 62.0816 15.509 61.625 15.509Z" fill="#161616" stroke="#161616" stroke-width="0.4"/>
<path d="M61.6251 30.5559H35.375C34.9183 30.5559 34.5501 30.927 34.5501 31.3835C34.5501 31.8401 34.9183 32.211 35.375 32.211H61.6251C62.0818 32.211 62.45 31.8401 62.45 31.3835C62.45 30.927 62.0819 30.5559 61.6251 30.5559Z" fill="#161616" stroke="#161616" stroke-width="0.4"/>
<path d="M31.2001 50.1904V50.1903V46.4279C31.2001 45.9715 30.8316 45.6008 30.3751 45.6008C29.9185 45.6008 29.55 45.9715 29.55 46.4279V50.1903C29.55 50.6468 29.9186 51.0173 30.3751 51.0173C30.8316 51.0173 31.1999 50.6467 31.2001 50.1904Z" fill="#161616" stroke="#161616" stroke-width="0.4"/>
<path d="M61.6251 49.3625H30.3751C29.9184 49.3625 29.55 49.7334 29.55 50.19C29.55 50.6466 29.9184 51.0175 30.3751 51.0175H61.6251C62.0818 51.0175 62.45 50.6466 62.45 50.19C62.45 49.7334 62.0818 49.3625 61.6251 49.3625Z" fill="#161616" stroke="#161616" stroke-width="0.4"/>
<path d="M31.2001 46.4273V46.4272V41.4119C31.2001 40.9557 30.8315 40.5852 30.3751 40.5852C29.9186 40.5852 29.55 40.9557 29.55 41.4119V46.4272C29.55 46.8836 29.9186 47.254 30.3751 47.254C30.8316 47.254 31.1999 46.8836 31.2001 46.4273Z" fill="#161616" stroke="#161616" stroke-width="0.4"/>
<path d="M17.8748 62.0016C15.4071 62.0016 13.3999 64.0156 13.3999 66.49C13.3999 68.9644 15.4071 70.9784 17.8748 70.9784C20.3424 70.9784 22.3498 68.9644 22.3498 66.49C22.3498 64.0156 20.3424 62.0016 17.8748 62.0016ZM17.8748 69.5247C16.2072 69.5247 14.8498 68.164 14.8498 66.49C14.8498 64.816 16.2072 63.4553 17.8748 63.4553C19.5424 63.4553 20.8999 64.816 20.8999 66.49C20.8999 68.164 19.5424 69.5247 17.8748 69.5247Z" fill="#161616" stroke="#161616" stroke-width="0.2"/>
<path d="M13.089 64.5094H9.12481C8.7238 64.5094 8.39976 64.835 8.39976 65.2366C8.39976 65.6381 8.7238 65.9638 9.12481 65.9638H13.089C13.49 65.9638 13.8141 65.6381 13.8141 65.2366C13.8141 64.835 13.49 64.5094 13.089 64.5094Z" fill="#161616" stroke="#161616" stroke-width="0.2"/>
<path d="M13.089 67.0152H9.12481C8.72381 67.0152 8.39976 67.3408 8.39976 67.7424C8.39976 68.1439 8.72381 68.4695 9.12481 68.4695H13.089C13.49 68.4695 13.8141 68.1439 13.8141 67.7424C13.8141 67.3408 13.49 67.0152 13.089 67.0152Z" fill="#161616" stroke="#161616" stroke-width="0.2"/>
<path d="M9.12489 67.0168C8.83559 67.0168 8.59983 66.7803 8.59983 66.49C8.59983 66.1997 8.83559 65.9632 9.12489 65.9632C9.52572 65.9632 9.84979 65.6377 9.84979 65.2363C9.84979 64.8349 9.52589 64.5094 9.12489 64.5094C8.03549 64.5094 7.14988 65.3981 7.14988 66.49C7.14988 67.5819 8.03549 68.4706 9.12489 68.4706C9.52589 68.4706 9.84979 68.1451 9.84979 67.7437C9.84979 67.3423 9.52589 67.0168 9.12489 67.0168Z" fill="#161616" stroke="#161616" stroke-width="0.2"/>
<path d="M17.8748 64.5094C16.7852 64.5094 15.8998 65.3981 15.8998 66.49C15.8998 67.5819 16.7854 68.4706 17.8748 68.4706C18.9643 68.4706 19.8498 67.5819 19.8498 66.49C19.8498 65.3981 18.9643 64.5094 17.8748 64.5094ZM17.8748 67.0166C17.5855 67.0166 17.3499 66.7802 17.3499 66.4898C17.3499 66.1995 17.5855 65.9631 17.8748 65.9631C18.164 65.9631 18.3998 66.1995 18.3998 66.4898C18.3998 66.7802 18.164 67.0166 17.8748 67.0166Z" fill="#161616" stroke="#161616" stroke-width="0.2"/>
<path d="M51.625 64.5094H23.9076C23.5066 64.5094 23.1826 64.835 23.1826 65.2366C23.1826 65.6381 23.5066 65.9638 23.9076 65.9638H51.625C52.026 65.9638 52.35 65.6381 52.35 65.2366C52.35 64.835 52.026 64.5094 51.625 64.5094Z" fill="#161616" stroke="#161616" stroke-width="0.2"/>
<path d="M51.625 67.0152H23.9076C23.5066 67.0152 23.1826 67.3408 23.1826 67.7424C23.1826 68.1439 23.5066 68.4695 23.9076 68.4695H51.625C52.026 68.4695 52.35 68.1439 52.35 67.7424C52.35 67.3408 52.026 67.0152 51.625 67.0152Z" fill="#161616" stroke="#161616" stroke-width="0.2"/>
<path d="M12.6209 72.076L12.6209 72.076L12.62 72.0763L7.61991 73.9566L7.61991 73.9566L7.61941 73.9568C7.33754 74.0645 7.14988 74.334 7.14988 74.6378C7.14988 74.9415 7.33736 75.211 7.61943 75.3188L7.61991 75.3189L12.62 77.1992L12.62 77.1992L12.6209 77.1995C12.7018 77.229 12.7878 77.2447 12.8749 77.2447H51.6249C52.0258 77.2447 52.35 76.9194 52.35 76.5182V72.7577C52.35 72.3561 52.0259 72.0309 51.6249 72.0309H12.8749C12.7878 72.0309 12.7018 72.0465 12.6209 72.076ZM50.9 75.7912H13.0067L9.93879 74.6376L13.0067 73.4841H50.9V75.7912Z" fill="#161616" stroke="#161616" stroke-width="0.2"/>
<path d="M14.7282 74.2366L14.7282 74.2365L13.4782 72.3556C13.4782 72.3556 13.4782 72.3556 13.4782 72.3556C13.2566 72.0206 12.8067 71.9296 12.4725 72.154C12.1392 72.377 12.0495 72.827 12.2715 73.1617L12.2715 73.1618L13.5215 75.0428C13.6611 75.253 13.8913 75.3667 14.1254 75.3667C14.2638 75.3667 14.4035 75.3269 14.5271 75.2444L14.5271 75.2444C14.8605 75.0214 14.9502 74.5715 14.7282 74.2366Z" fill="#161616" stroke="#161616" stroke-width="0.2"/>
<path d="M12.2715 76.1173L12.2715 76.1173L13.5212 74.2368C13.5213 74.2368 13.5213 74.2367 13.5213 74.2367C13.7424 73.9012 14.1924 73.8105 14.5272 74.035L14.4715 74.1181L14.5271 74.035C14.8605 74.2579 14.9502 74.7078 14.7282 75.0426L14.7282 75.0427L13.4781 76.9235L12.2715 76.1173ZM12.2715 76.1173C12.0494 76.452 12.1392 76.9021 12.4726 77.125L12.4728 77.1252M12.2715 76.1173L12.4728 77.1252M12.4728 77.1252C12.5964 77.2074 12.7359 77.2472 12.8742 77.2472M12.4728 77.1252L12.8742 77.2472M12.8742 77.2472C13.1083 77.2472 13.3386 77.1337 13.4781 76.9235L12.8742 77.2472Z" fill="#161616" stroke="#161616" stroke-width="0.2"/>
<path d="M47.875 72.0309C47.474 72.0309 47.1501 72.3562 47.1501 72.7577V76.5186C47.1501 76.92 47.4741 77.2453 47.875 77.2453C48.2759 77.2453 48.6001 76.92 48.5999 76.5186C48.5999 76.5185 48.5999 76.5185 48.5999 76.5185V72.7577C48.5999 72.3562 48.276 72.0309 47.875 72.0309Z" fill="#161616" stroke="#161616" stroke-width="0.2"/>
<path d="M42.875 72.0309C42.4741 72.0309 42.15 72.3561 42.15 72.7577V76.5186C42.15 76.92 42.4741 77.2453 42.875 77.2453C43.276 77.2453 43.6001 76.92 43.5999 76.5186C43.5999 76.5185 43.5999 76.5185 43.5999 76.5185V72.7577C43.5999 72.3562 43.276 72.0309 42.875 72.0309Z" fill="#161616" stroke="#161616" stroke-width="0.2"/>
<path d="M62.875 64.5074H56.6251C56.2239 64.5074 55.9 64.8329 55.9 65.2344V76.5198C55.9 76.9213 56.2239 77.2466 56.6251 77.2466H62.875C63.2759 77.2466 63.6002 76.9213 63.6 76.5198C63.6 76.5198 63.6 76.5198 63.6 76.5198V65.2344C63.6 64.8329 63.276 64.5074 62.875 64.5074ZM62.1499 75.7929H57.35V65.9613H62.1499V75.7929Z" fill="#161616" stroke="#161616" stroke-width="0.2"/>
<path d="M61.6251 67.0152H57.8751C57.4741 67.0152 57.15 67.3408 57.15 67.7424C57.15 68.1439 57.4741 68.4695 57.8751 68.4695H61.6251C62.0261 68.4695 62.35 68.1439 62.35 67.7424C62.35 67.3409 62.0261 67.0152 61.6251 67.0152Z" fill="#161616" stroke="#161616" stroke-width="0.2"/>
<path d="M61.6251 73.2848H57.8751C57.474 73.2848 57.15 73.6106 57.15 74.0121C57.15 74.414 57.474 74.7396 57.8751 74.7396H61.6251C62.0261 74.7396 62.35 74.414 62.35 74.0121C62.35 73.6106 62.0261 73.2848 61.6251 73.2848Z" fill="#161616" stroke="#161616" stroke-width="0.2"/>
</svg>
